<?xml version="1.0" encoding="us-ascii" standalone="no"?><svg xmlns="http://www.w3.org/2000/svg" xmlns:xlink="http://www.w3.org/1999/xlink" contentStyleType="text/css" height="1030px" preserveAspectRatio="none" style="width:832px;height:1030px;background:#FFFFFF;" version="1.1" viewBox="0 0 832 1030" width="832px" zoomAndPan="magnify"><defs/><g><!--cluster GetActive Component Diagram--><g id="cluster_GetActive Component Diagram"><rect fill="none" height="1017" rx="2.5" ry="2.5" style="stroke:#181818;stroke-width:1.0;" width="819" x="7" y="7"/><text fill="#000000" font-family="sans-serif" font-size="14" font-weight="bold" lengthAdjust="spacing" textLength="247" x="293" y="21.9951">GetActive Component Diagram</text></g><!--cluster APPLICATION--><g id="cluster_APPLICATION"><rect fill="none" height="819" rx="2.5" ry="2.5" style="stroke:#181818;stroke-width:1.0;" width="803" x="15" y="197"/><text fill="#000000" font-family="sans-serif" font-size="14" font-weight="bold" lengthAdjust="spacing" textLength="173" x="330" y="211.9951">GetActive Application</text></g><!--cluster Backend Docker Container--><g id="cluster_Backend Docker Container"><polygon fill="none" points="23,613,33,603,810,603,810,696,800,706,23,706,23,613" style="stroke:#181818;stroke-width:1.0;"/><line style="stroke:#181818;stroke-width:1.0;" x1="800" x2="810" y1="613" y2="603"/><line style="stroke:#181818;stroke-width:1.0;" x1="23" x2="800" y1="613" y2="613"/><line style="stroke:#181818;stroke-width:1.0;" x1="800" x2="800" y1="613" y2="706"/><text fill="#000000" font-family="sans-serif" font-size="14" font-weight="bold" lengthAdjust="spacing" textLength="211" x="307" y="628.9951">Backend Docker Container</text></g><!--cluster MySQL Docker Container--><g id="cluster_MySQL Docker Container"><polygon fill="none" points="512,933,522,923,786,923,786,998,776,1008,512,1008,512,933" style="stroke:#181818;stroke-width:1.0;"/><line style="stroke:#181818;stroke-width:1.0;" x1="776" x2="786" y1="933" y2="923"/><line style="stroke:#181818;stroke-width:1.0;" x1="512" x2="776" y1="933" y2="933"/><line style="stroke:#181818;stroke-width:1.0;" x1="776" x2="776" y1="933" y2="1008"/><text fill="#000000" font-family="sans-serif" font-size="14" font-weight="bold" lengthAdjust="spacing" textLength="198" x="546" y="948.9951">MySQL Docker Container</text></g><!--cluster Frontend Docker Container--><g id="cluster_Frontend Docker Container"><polygon fill="none" points="124,234,134,224,418,224,418,300,408,310,124,310,124,234" style="stroke:#181818;stroke-width:1.0;"/><line style="stroke:#181818;stroke-width:1.0;" x1="408" x2="418" y1="234" y2="224"/><line style="stroke:#181818;stroke-width:1.0;" x1="124" x2="408" y1="234" y2="234"/><line style="stroke:#181818;stroke-width:1.0;" x1="408" x2="408" y1="234" y2="310"/><text fill="#000000" font-family="sans-serif" font-size="14" font-weight="bold" lengthAdjust="spacing" textLength="218" x="158" y="249.9951">Frontend Docker Container</text></g><!--entity BACKEND_API--><g id="elem_BACKEND_API"><rect fill="#F1F1F1" height="46.2969" rx="2.5" ry="2.5" style="stroke:#181818;stroke-width:0.5;" width="185" x="31.5" y="643.5"/><rect fill="#F1F1F1" height="10" style="stroke:#181818;stroke-width:0.5;" width="15" x="196.5" y="648.5"/><rect fill="#F1F1F1" height="2" style="stroke:#181818;stroke-width:0.5;" width="4" x="194.5" y="650.5"/><rect fill="#F1F1F1" height="2" style="stroke:#181818;stroke-width:0.5;" width="4" x="194.5" y="654.5"/><text fill="#000000" font-family="sans-serif" font-size="14" lengthAdjust="spacing" textLength="145" x="46.5" y="676.4951">REST API Controllers</text></g><!--entity BACKEND_SERVICE--><g id="elem_BACKEND_SERVICE"><rect fill="#F1F1F1" height="62.5938" rx="2.5" ry="2.5" style="stroke:#181818;stroke-width:0.5;" width="248" x="283" y="635"/><rect fill="#F1F1F1" height="10" style="stroke:#181818;stroke-width:0.5;" width="15" x="511" y="640"/><rect fill="#F1F1F1" height="2" style="stroke:#181818;stroke-width:0.5;" width="4" x="509" y="642"/><rect fill="#F1F1F1" height="2" style="stroke:#181818;stroke-width:0.5;" width="4" x="509" y="646"/><text fill="#000000" font-family="sans-serif" font-size="14" lengthAdjust="spacing" textLength="97" x="298" y="667.9951">Service Layer</text><text fill="#000000" font-family="sans-serif" font-size="14" lengthAdjust="spacing" textLength="208" x="298" y="684.292">Contains Core Business Logic</text></g><!--entity BACKEND_DATA--><g id="elem_BACKEND_DATA"><rect fill="#F1F1F1" height="46.2969" rx="2.5" ry="2.5" style="stroke:#181818;stroke-width:0.5;" width="236" x="566" y="643.5"/><rect fill="#F1F1F1" height="10" style="stroke:#181818;stroke-width:0.5;" width="15" x="782" y="648.5"/><rect fill="#F1F1F1" height="2" style="stroke:#181818;stroke-width:0.5;" width="4" x="780" y="650.5"/><rect fill="#F1F1F1" height="2" style="stroke:#181818;stroke-width:0.5;" width="4" x="780" y="654.5"/><text fill="#000000" font-family="sans-serif" font-size="14" lengthAdjust="spacing" textLength="196" x="581" y="676.4951">Spring JPA Repository Layer</text></g><!--entity MySQL Database--><g id="elem_MySQL Database"><path d="M614,965 C614,955 684,955 684,955 C684,955 754,955 754,965 L754,990.2969 C754,1000.2969 684,1000.2969 684,1000.2969 C684,1000.2969 614,1000.2969 614,990.2969 L614,965 " fill="#F1F1F1" style="stroke:#181818;stroke-width:0.5;"/><path d="M614,965 C614,975 684,975 684,975 C684,975 754,975 754,965 " fill="none" style="stroke:#181818;stroke-width:0.5;"/><text fill="#000000" font-family="sans-serif" font-size="14" lengthAdjust="spacing" textLength="120" x="624" y="991.9951">MySQL Database</text></g><!--entity React App--><g id="elem_React App"><rect fill="#F1F1F1" height="46.2969" rx="2.5" ry="2.5" style="stroke:#181818;stroke-width:0.5;" width="113" x="161.5" y="256"/><rect fill="#F1F1F1" height="10" style="stroke:#181818;stroke-width:0.5;" width="15" x="254.5" y="261"/><rect fill="#F1F1F1" height="2" style="stroke:#181818;stroke-width:0.5;" width="4" x="252.5" y="263"/><rect fill="#F1F1F1" height="2" style="stroke:#181818;stroke-width:0.5;" width="4" x="252.5" y="267"/><text fill="#000000" font-family="sans-serif" font-size="14" lengthAdjust="spacing" textLength="73" x="176.5" y="288.9951">React App</text></g><!--entity CLOUD--><g id="elem_CLOUD"><path d="M64.2219,43.9479 C66.3807,37.5879 70.288,35.1201 75.9633,40.4009 C79.5809,34.2176 84.7177,33.1884 88.7999,39.9398 C92.4897,34.7431 96.6786,35.42 99.4407,40.8672 C104.1291,35.2736 109.6316,35.4857 112.4924,42.7257 C120.8326,46.4041 120.7313,51.9406 114.0138,57.2015 C122.6614,63.1694 121.8323,69.8509 112.5317,74.2594 C109.0096,80.4549 104.4175,79.6367 100.4936,74.6937 C96.8391,81.2505 92.9705,81.2662 88.3716,75.633 C83.2432,81.544 78.7856,80.7828 75.4241,73.8515 C71.668,78.0343 68.4192,77.8297 65.0926,73.3398 C55.4325,71.6427 51.8192,67.1381 57.0556,57.7577 C52.8328,50.281 54.584,44.2319 64.2219,43.9479 " fill="#F1F1F1" style="stroke:#181818;stroke-width:0.5;"/><text fill="#000000" font-family="sans-serif" font-size="14" lengthAdjust="spacing" textLength="33" x="70.5" y="61.9951">AWS</text></g><!--link BACKEND_API to BACKEND_SERVICE--><g id="link_BACKEND_API_BACKEND_SERVICE"><path d="M216.6648,666.5 C237.7821,666.5 254.5534,666.5 276.7498,666.5 " fill="none" id="BACKEND_API-to-BACKEND_SERVICE" style="stroke:#181818;stroke-width:1.0;"/><polygon fill="#181818" points="282.7498,666.5,273.7498,662.5,277.7498,666.5,273.7498,670.5,282.7498,666.5" style="stroke:#181818;stroke-width:1.0;"/><text fill="#000000" font-family="sans-serif" font-size="13" lengthAdjust="spacing" textLength="30" x="234.75" y="659.5669">uses</text></g><!--link BACKEND_SERVICE to BACKEND_DATA--><g id="link_BACKEND_SERVICE_BACKEND_DATA"><path d="M537.1631,666.5 C548.7055,666.5 548.2478,666.5 559.7902,666.5 " fill="none" id="BACKEND_SERVICE-BACKEND_DATA" style="stroke:#181818;stroke-width:1.0;"/><polygon fill="#181818" points="531.1631,666.5,540.1631,670.5,536.1631,666.5,540.1631,662.5,531.1631,666.5" style="stroke:#181818;stroke-width:1.0;"/><polygon fill="#181818" points="565.7902,666.5,556.7902,662.5,560.7902,666.5,556.7902,670.5,565.7902,666.5" style="stroke:#181818;stroke-width:1.0;"/></g><!--link BACKEND_DATA to MySQL Database--><g id="link_BACKEND_DATA_MySQL Database"><path d="M684,695.8141 C684,714.6241 684,735.7656 684,759.5 C684,759.5 684,759.5 684,883.5 C684,907.816 684,929.6701 684,948.7065 " fill="none" id="BACKEND_DATA-MySQL Database" style="stroke:#181818;stroke-width:1.0;"/><polygon fill="#181818" points="684,689.8141,680,698.8141,684,694.8141,688,698.8141,684,689.8141" style="stroke:#181818;stroke-width:1.0;"/><polygon fill="#181818" points="684,954.7065,688,945.7065,684,949.7065,680,945.7065,684,954.7065" style="stroke:#181818;stroke-width:1.0;"/></g><!--link React App to BACKEND_API--><g id="link_React App_BACKEND_API"><path d="M176.4155,302.0695 C139.3769,323.3032 91,353.0392 91,363.5 C91,363.5 91,363.5 91,563.5 C91,592.0415 100.1158,617.5554 109.5682,637.9999 " fill="none" id="React App-to-BACKEND_API" style="stroke:#181818;stroke-width:1.0;"/><polygon fill="#181818" points="112.0862,643.446,111.94,633.5982,109.9879,638.9076,104.6785,636.9555,112.0862,643.446" style="stroke:#181818;stroke-width:1.0;"/><text fill="#000000" font-family="sans-serif" font-size="13" lengthAdjust="spacing" textLength="91" x="92" y="438.0669">HTTP Request</text><text fill="#000000" font-family="sans-serif" font-size="13" lengthAdjust="spacing" textLength="26" x="124.5" y="453.1997">GET</text><text fill="#000000" font-family="sans-serif" font-size="13" lengthAdjust="spacing" textLength="26" x="124.5" y="468.3325">PUT</text><text fill="#000000" font-family="sans-serif" font-size="13" lengthAdjust="spacing" textLength="34" x="120.5" y="483.4653">POST</text><text fill="#000000" font-family="sans-serif" font-size="13" lengthAdjust="spacing" textLength="49" x="113" y="498.5981">DELETE</text></g><!--reverse link React App to BACKEND_API--><g id="link_React App_BACKEND_API"><path d="M236.9396,307.4529 C246.5835,323.8291 254,341.4945 254,363.5 C254,363.5 254,363.5 254,563.5 C254,600.9333 220.4764,626.9094 187.4767,643.4114 " fill="none" id="React App-backto-BACKEND_API" style="stroke:#181818;stroke-width:1.0;"/><polygon fill="#181818" points="233.8949,302.2828,235.0152,312.0677,236.4321,306.5912,241.9086,308.0082,233.8949,302.2828" style="stroke:#181818;stroke-width:1.0;"/><text fill="#000000" font-family="sans-serif" font-size="13" lengthAdjust="spacing" textLength="101" x="255" y="468.0669">HTTP Response</text></g><!--reverse link CLOUD to APPLICATION--><g id="link_CLOUD_APPLICATION"><path d="M87,86.3383 C87,100.1424 87,112.9126 87,133.4338 C87,143.6944 87,154.3927 87,165.1269 C87,170.494 87,175.87 87,181.2048 C87,183.8722 87,186.5293 87,189.1697 C87,190.49 87,191.8061 87,193.1172 C87,193.7728 87,194.4271 87,195.0801 C87,195.4067 87,195.7328 87,196.0587 " fill="none" id="CLOUD-backto-APPLICATION" style="stroke:#181818;stroke-width:1.0;"/><polygon fill="#181818" points="87,80.3383,83,89.3383,87,85.3383,91,89.3383,87,80.3383" style="stroke:#181818;stroke-width:1.0;"/><text fill="#000000" font-family="sans-serif" font-size="13" lengthAdjust="spacing" textLength="163" x="88" y="154.0669">Deploys to Cloud Service</text></g><!--SRC=[ZL9RRu8m57xdLvpmxXymov8ApBanPO3RWvAbWnFJ35lM5XEo-D_N8b5GTpaFvTBlrjCZCTUKRqe4TugQv9hj43onhGH7hi5dT2FfreKl1qp9QsXILINBgMQ2kq0La2WAPnv9PujvHxF5HM5O4vf_82_05-OfZH7Nb76KRWzfQnK7IMgKPYr4Yh94gJAhFY7UOp3ttypUa96WtB4S8QGDoZNlf9KHa0YJMXaRfI0K6vOFX98WVfbvmPbO9HdVm4D48CPAAAQ5R0xI0x9FKd9axezlgrxA34PoT7lwrVbbC8PQeRha704tGwBrofopXZuroNFuPpiBgkaxLITyztsEs_zsbjRVX2figA7EHQmxQQByuw9NCT9Ssn7AUjREbMqu-FOREuRxD8tC1NtMgFIQJuDqpQEbNHQ9MVqW3DBWgfWznGzYoeo-GkVKXBmKTG4kUKtQyVR2nTBlJh5tziwgD-ycPMrJjXWZwMDLYaQ15k2rAjsGVWC0]--></g></svg>