<svg xmlns="http://www.w3.org/2000/svg" xmlns:xlink="http://www.w3.org/1999/xlink" contentStyleType="text/css" data-diagram-type="DESCRIPTION" height="744px" preserveAspectRatio="none" style="width:975px;height:744px;background:#FFFFFF;" version="1.1" viewBox="0 0 975 744" width="975px" zoomAndPan="magnify"><defs/><g><!--cluster GetActive Component Diagram--><g class="cluster" data-entity="GetActive Component Diagram" data-source-line="1" data-uid="ent0002" id="cluster_GetActive Component Diagram"><rect fill="none" height="731.48" rx="2.5" ry="2.5" style="stroke:#181818;stroke-width:1;" width="932" x="7" y="7"/><text fill="#000000" font-family="sans-serif" font-size="14" font-weight="bold" lengthAdjust="spacing" textLength="243.7422" x="351.1289" y="21.9951">GetActive Component Diagram</text></g><!--cluster APPLICATION--><g class="cluster" data-entity="APPLICATION" data-source-line="2" data-uid="ent0003" id="cluster_APPLICATION"><rect fill="none" height="547.19" rx="2.5" ry="2.5" style="stroke:#181818;stroke-width:1;" width="868" x="39" y="159.29"/><text fill="#000000" font-family="sans-serif" font-size="14" font-weight="bold" lengthAdjust="spacing" textLength="171.0967" x="387.4517" y="174.2851">GetActive Application</text></g><!--cluster Backend Docker Container--><g class="cluster" data-entity="Backend Docker Container" data-source-line="3" data-uid="ent0004" id="cluster_Backend Docker Container"><polygon fill="none" points="71,431.59,81,421.59,867,421.59,867,530.18,857,540.18,71,540.18,71,431.59" style="stroke:#181818;stroke-width:1;"/><line style="stroke:#181818;stroke-width:1;" x1="857" x2="867" y1="431.59" y2="421.59"/><line style="stroke:#181818;stroke-width:1;" x1="71" x2="857" y1="431.59" y2="431.59"/><line style="stroke:#181818;stroke-width:1;" x1="857" x2="857" y1="431.59" y2="540.18"/><text fill="#000000" font-family="sans-serif" font-size="14" font-weight="bold" lengthAdjust="spacing" textLength="209.3711" x="360.3145" y="447.5851">Backend Docker Container</text></g><!--cluster MySQL Docker Container--><g class="cluster" data-entity="MySQL Docker Container" data-source-line="11" data-uid="ent0010" id="cluster_MySQL Docker Container"><polygon fill="none" points="572,583.18,582,573.18,844,573.18,844,664.48,834,674.48,572,674.48,572,583.18" style="stroke:#181818;stroke-width:1;"/><line style="stroke:#181818;stroke-width:1;" x1="834" x2="844" y1="583.18" y2="573.18"/><line style="stroke:#181818;stroke-width:1;" x1="572" x2="834" y1="583.18" y2="583.18"/><line style="stroke:#181818;stroke-width:1;" x1="834" x2="834" y1="583.18" y2="674.48"/><text fill="#000000" font-family="sans-serif" font-size="14" font-weight="bold" lengthAdjust="spacing" textLength="196.123" x="605.9385" y="599.1751">MySQL Docker Container</text></g><!--cluster Frontend Docker Container--><g class="cluster" data-entity="Frontend Docker Container" data-source-line="17" data-uid="ent0013" id="cluster_Frontend Docker Container"><polygon fill="none" points="126,220.29,136,210.29,416,210.29,416,302.59,406,312.59,126,312.59,126,220.29" style="stroke:#181818;stroke-width:1;"/><line style="stroke:#181818;stroke-width:1;" x1="406" x2="416" y1="220.29" y2="210.29"/><line style="stroke:#181818;stroke-width:1;" x1="126" x2="406" y1="220.29" y2="220.29"/><line style="stroke:#181818;stroke-width:1;" x1="406" x2="406" y1="220.29" y2="312.59"/><text fill="#000000" font-family="sans-serif" font-size="14" font-weight="bold" lengthAdjust="spacing" textLength="214.3887" x="159.8057" y="236.2851">Frontend Docker Container</text></g><!--entity BACKEND_API--><g class="entity" data-entity="BACKEND_API" data-source-line="4" data-uid="ent0005" id="entity_BACKEND_API"><rect fill="#F1F1F1" height="46.2969" rx="2.5" ry="2.5" style="stroke:#181818;stroke-width:0.5;" width="183.5273" x="87.24" y="469.74"/><rect fill="#F1F1F1" height="10" style="stroke:#181818;stroke-width:0.5;" width="15" x="250.7673" y="474.74"/><rect fill="#F1F1F1" height="2" style="stroke:#181818;stroke-width:0.5;" width="4" x="248.7673" y="476.74"/><rect fill="#F1F1F1" height="2" style="stroke:#181818;stroke-width:0.5;" width="4" x="248.7673" y="480.74"/><text fill="#000000" font-family="sans-serif" font-size="14" lengthAdjust="spacing" textLength="143.5273" x="102.24" y="502.7351">REST API Controllers</text></g><!--entity BACKEND_SERVICE--><g class="entity" data-entity="BACKEND_SERVICE" data-source-line="5" data-uid="ent0006" id="entity_BACKEND_SERVICE"><rect fill="#F1F1F1" height="62.5938" rx="2.5" ry="2.5" style="stroke:#181818;stroke-width:0.5;" width="245.9736" x="336.01" y="461.59"/><rect fill="#F1F1F1" height="10" style="stroke:#181818;stroke-width:0.5;" width="15" x="561.9836" y="466.59"/><rect fill="#F1F1F1" height="2" style="stroke:#181818;stroke-width:0.5;" width="4" x="559.9836" y="468.59"/><rect fill="#F1F1F1" height="2" style="stroke:#181818;stroke-width:0.5;" width="4" x="559.9836" y="472.59"/><text fill="#000000" font-family="sans-serif" font-size="14" lengthAdjust="spacing" textLength="95.2246" x="351.01" y="494.5851">Service Layer</text><text fill="#000000" font-family="sans-serif" font-size="14" lengthAdjust="spacing" textLength="205.9736" x="351.01" y="510.882">Contains Core Business Logic</text></g><!--entity BACKEND_DATA--><g class="entity" data-entity="BACKEND_DATA" data-source-line="6" data-uid="ent0007" id="entity_BACKEND_DATA"><rect fill="#F1F1F1" height="46.2969" rx="2.5" ry="2.5" style="stroke:#181818;stroke-width:0.5;" width="234.7832" x="616.61" y="469.74"/><rect fill="#F1F1F1" height="10" style="stroke:#181818;stroke-width:0.5;" width="15" x="831.3932" y="474.74"/><rect fill="#F1F1F1" height="2" style="stroke:#181818;stroke-width:0.5;" width="4" x="829.3932" y="476.74"/><rect fill="#F1F1F1" height="2" style="stroke:#181818;stroke-width:0.5;" width="4" x="829.3932" y="480.74"/><text fill="#000000" font-family="sans-serif" font-size="14" lengthAdjust="spacing" textLength="194.7832" x="631.61" y="502.7351">Spring JPA Repository Layer</text></g><!--entity MySQL Database--><g class="entity" data-entity="MySQL Database" data-source-line="12" data-uid="ent0011" id="entity_MySQL Database"><path d="M664.34,623.18 C664.34,613.18 734.0006,613.18 734.0006,613.18 C734.0006,613.18 803.6613,613.18 803.6613,623.18 L803.6613,648.4769 C803.6613,658.4769 734.0006,658.4769 734.0006,658.4769 C734.0006,658.4769 664.34,658.4769 664.34,648.4769 L664.34,623.18" fill="#F1F1F1" style="stroke:#181818;stroke-width:0.5;"/><path d="M664.34,623.18 C664.34,633.18 734.0006,633.18 734.0006,633.18 C734.0006,633.18 803.6613,633.18 803.6613,623.18" fill="none" style="stroke:#181818;stroke-width:0.5;"/><text fill="#000000" font-family="sans-serif" font-size="14" lengthAdjust="spacing" textLength="119.3213" x="674.34" y="650.1751">MySQL Database</text></g><!--entity React App--><g class="entity" data-entity="React App" data-source-line="18" data-uid="ent0014" id="entity_React App"><rect fill="#F1F1F1" height="46.2969" rx="2.5" ry="2.5" style="stroke:#181818;stroke-width:0.5;" width="111.9072" x="169.05" y="250.29"/><rect fill="#F1F1F1" height="10" style="stroke:#181818;stroke-width:0.5;" width="15" x="260.9572" y="255.29"/><rect fill="#F1F1F1" height="2" style="stroke:#181818;stroke-width:0.5;" width="4" x="258.9572" y="257.29"/><rect fill="#F1F1F1" height="2" style="stroke:#181818;stroke-width:0.5;" width="4" x="258.9572" y="261.29"/><text fill="#000000" font-family="sans-serif" font-size="14" lengthAdjust="spacing" textLength="71.9072" x="184.05" y="283.2851">React App</text></g><!--entity CLOUD--><g class="entity" data-entity="CLOUD" data-source-line="24" data-uid="ent0017" id="entity_CLOUD"><path d="M695.7812,50.1137 C700.069,44.0394 704.6263,44.5522 708.4355,50.6128 C712.4192,44.6547 717.7594,43.4169 722.5175,49.7238 C725.3201,44.0779 731.553,43.4001 735.3905,48.4821 C739.8935,42.6765 744.4931,42.6794 748.0787,49.4106 C750.6704,42.6728 755.1687,43.4984 759.4212,47.6866 C764.2796,40.264 769.8554,40.5471 773.9904,48.3777 C776.9984,42.8053 782.7658,42.3917 785.5959,48.5537 C789.8061,43.2031 795.4539,43.4891 798.8858,49.4668 C803.6119,44.1131 808.0128,44.6581 810.7151,51.4395 C814.359,46.1982 819.473,45.3079 823.4257,51.0832 C832.1632,53.3524 835.1631,60.2637 828.145,67.1584 C833.1301,73.8589 831.2529,78.2675 824.05,81.4843 C819.9145,87.5396 815.7623,88.1239 811.1436,81.996 C808.3178,87.2592 802.1592,87.7655 798.61,82.8902 C795.4113,89.2288 790.3564,90.3959 785.2811,85.0264 C782.8338,90.6034 778.7862,92.76 773.9873,87.4706 C770.0972,93.2544 763.9935,93.0618 760.2352,87.3133 C756.5568,94.922 750.2015,93.1366 746.3781,87.4645 C741.9675,92.1306 738.4561,92.4027 735.4379,86.0785 C729.7923,92.1014 725.1699,93.0542 721.0004,84.6059 C715.8356,91.1313 710.7639,90.2671 707.9128,82.489 C703.235,88.0896 699.9122,86.015 696.7227,80.9304 C687.5946,80.142 685.1162,73.3872 690.7454,66.4902 C684.7312,59.9159 687.0484,52.1532 695.7812,50.1137" fill="#F1F1F1" style="stroke:#181818;stroke-width:0.5;"/><text fill="#000000" font-family="sans-serif" font-size="14" lengthAdjust="spacing" textLength="114.2148" x="701.89" y="69.9951">AWS/Heroku/Etc</text></g><!--link BACKEND_API to BACKEND_SERVICE--><g class="link" data-entity-1="BACKEND_API" data-entity-2="BACKEND_SERVICE" data-source-line="8" data-uid="lnk8" id="link_BACKEND_API_BACKEND_SERVICE"><path d="M271.07,492.89 C291.71,492.89 307.93,492.89 329.62,492.89" fill="none" id="BACKEND_API-to-BACKEND_SERVICE" style="stroke:#181818;stroke-width:1;"/><polygon fill="#181818" points="335.62,492.89,326.62,488.89,330.62,492.89,326.62,496.89,335.62,492.89" style="stroke:#181818;stroke-width:1;"/><text fill="#000000" font-family="sans-serif" font-size="13" lengthAdjust="spacing" textLength="29.7832" x="288.89" y="485.9569">uses</text></g><!--link BACKEND_SERVICE to BACKEND_DATA--><g class="link" data-entity-1="BACKEND_SERVICE" data-entity-2="BACKEND_DATA" data-source-line="9" data-uid="lnk9" id="link_BACKEND_SERVICE_BACKEND_DATA"><path d="M588.27,492.89 C599.63,492.89 598.99,492.89 610.35,492.89" fill="none" id="BACKEND_SERVICE-BACKEND_DATA" style="stroke:#181818;stroke-width:1;"/><polygon fill="#181818" points="582.27,492.89,591.27,496.89,587.27,492.89,591.27,488.89,582.27,492.89" style="stroke:#181818;stroke-width:1;"/><polygon fill="#181818" points="616.35,492.89,607.35,488.89,611.35,492.89,607.35,496.89,616.35,492.89" style="stroke:#181818;stroke-width:1;"/></g><!--link BACKEND_DATA to MySQL Database--><g class="link" data-entity-1="BACKEND_DATA" data-entity-2="MySQL Database" data-source-line="15" data-uid="lnk12" id="link_BACKEND_DATA_MySQL Database"><path d="M734,522.53 C734,548.99 734,580.48 734,606.71" fill="none" id="BACKEND_DATA-MySQL Database" style="stroke:#181818;stroke-width:1;"/><polygon fill="#181818" points="734,516.53,730,525.53,734,521.53,738,525.53,734,516.53" style="stroke:#181818;stroke-width:1;"/><polygon fill="#181818" points="734,612.71,738,603.71,734,607.71,730,603.71,734,612.71" style="stroke:#181818;stroke-width:1;"/></g><!--link React App to BACKEND_API--><g class="link" data-entity-1="React App" data-entity-2="BACKEND_API" data-source-line="21" data-uid="lnk15" id="link_React App_BACKEND_API"><path d="M168.68,289.17 C148.82,297.37 128.57,309.85 117,328.59 C99.02,357.71 106.51,373.01 117,405.59 C124.86,430 138.4716,448.8575 152.9216,465.0975" fill="none" id="React App-to-BACKEND_API" style="stroke:#181818;stroke-width:1;"/><polygon fill="#181818" points="156.91,469.58,153.9157,460.1973,153.5863,465.8446,147.9391,465.5152,156.91,469.58" style="stroke:#181818;stroke-width:1;"/><text fill="#000000" font-family="sans-serif" font-size="13" lengthAdjust="spacing" textLength="91.019" x="118" y="341.6569">HTTP Request</text><text fill="#000000" font-family="sans-serif" font-size="13" lengthAdjust="spacing" textLength="26.2285" x="150.3953" y="356.7897">GET</text><text fill="#000000" font-family="sans-serif" font-size="13" lengthAdjust="spacing" textLength="25.2954" x="150.8618" y="371.9225">PUT</text><text fill="#000000" font-family="sans-serif" font-size="13" lengthAdjust="spacing" textLength="34.2646" x="146.3772" y="387.0553">POST</text><text fill="#000000" font-family="sans-serif" font-size="13" lengthAdjust="spacing" textLength="49.8354" x="138.5918" y="402.1881">DELETE</text></g><!--reverse link React App to BACKEND_API--><g class="link" data-entity-1="React App" data-entity-2="BACKEND_API" data-source-line="22" data-uid="lnk16" id="link_React App_BACKEND_API"><path d="M225.0941,303.0396 C224.8041,329.4396 222.92,368.25 214,405.59 C208.63,428.08 198.34,452.37 190.3,469.43" fill="none" id="React App-backto-BACKEND_API" style="stroke:#181818;stroke-width:1;"/><polygon fill="#181818" points="225.16,297.04,221.0614,305.9955,225.1051,302.0397,229.0609,306.0834,225.16,297.04" style="stroke:#181818;stroke-width:1;"/><text fill="#000000" font-family="sans-serif" font-size="13" lengthAdjust="spacing" textLength="100.6484" x="224" y="371.6569">HTTP Response</text></g><!--reverse link CLOUD to APPLICATION--><g class="link" data-entity-1="CLOUD" data-entity-2="APPLICATION" data-source-line="27" data-uid="lnk19" id="link_CLOUD_APPLICATION"><path d="M777.619,93.5749 C786.549,106.7349 795.27,119.5863 808.4239,138.97 C811.7124,143.8159 815.0674,148.7598 818.4561,153.7535 C819.3032,155.0019 820.1525,156.2534 821.0034,157.5072 C821.2161,157.8207 821.429,158.1343 821.6419,158.4481" fill="none" id="CLOUD-backto-APPLICATION" style="stroke:#181818;stroke-width:1;"/><polygon fill="#181818" points="774.25,88.61,775.9936,98.3033,777.0575,92.7474,782.6134,93.8113,774.25,88.61" style="stroke:#181818;stroke-width:1;"/><text fill="#000000" font-family="sans-serif" font-size="13" lengthAdjust="spacing" textLength="162.9189" x="805" y="131.3569">Deploys to Cloud Service</text></g><!--SRC=[ZL9RJuCm57xdLvpmllXkZ4a7LQUuuM3wi15JoydIo5fiYybYzjzjaMmmv-Kyb4k_Mq-FHcwPN5S8uJLQmgruHuZKfbOIfOLOiBLccn0-0d2bJw59NLU2CokK384P86cQJ2AIJsRJZkPBgjAnneo_eYmXLkwfdP6qJ4ZKOG_fQpcdMUwK9Yr4gwf2RGglFYRH7Pt6psvloCXGlmkEaB0jwfNif8qJq0ZZnZWROo1HQy47GXcTFquYUYHMQo7NS9iIc6EjZB1ARx-a1-IOv6JFtEtVbhsK1OpqwFBmg_Chu1mQW-OxPm-u61AzLn4SDVH-cpqaVxQpP9QzC7F0Tz_7kDrlPsdzNQZIXnhgV8jrfLsKVrpqSewCMpz2HSywEB4DNxxznfx3JPwdxeBU6ZHs9QzflfBfmY-ppAqnJMXEJuhvK_mWPjpe6mmEJU2LQae8oLDsTeDQlJPdrF9sqgDajeYx0-s2NR3iZRuBtFZ0BSQfnrXNQcl0AeXQmMvUFm40]--></g></svg>