<?xml version="1.0" encoding="us-ascii" standalone="no"?><svg xmlns="http://www.w3.org/2000/svg" xmlns:xlink="http://www.w3.org/1999/xlink" contentStyleType="text/css" height="666px" preserveAspectRatio="none" style="width:454px;height:666px;background:#FFFFFF;" version="1.1" viewBox="0 0 454 666" width="454px" zoomAndPan="magnify"><defs/><g><!--cluster model--><g id="cluster_model"><path d="M8.5,6 L59.5,6 A3.75,3.75 0 0 1 62,8.5 L69,28.2969 L444.5,28.2969 A2.5,2.5 0 0 1 447,30.7969 L447,656.5 A2.5,2.5 0 0 1 444.5,659 L8.5,659 A2.5,2.5 0 0 1 6,656.5 L6,8.5 A2.5,2.5 0 0 1 8.5,6 " fill="none" style="stroke:#000000;stroke-width:1.5;"/><line style="stroke:#000000;stroke-width:1.5;" x1="6" x2="69" y1="28.2969" y2="28.2969"/><text fill="#000000" font-family="sans-serif" font-size="14" font-weight="bold" lengthAdjust="spacing" textLength="50" x="10" y="20.9951">model</text></g><!--class User--><g id="elem_User"><rect codeLine="3" fill="#F1F1F1" height="113.1875" id="User" rx="2.5" ry="2.5" style="stroke:#181818;stroke-width:0.5;" width="178" x="261" y="49.5"/><ellipse cx="329.75" cy="65.5" fill="#ADD1B2" rx="11" ry="11" style="stroke:#181818;stroke-width:1.0;"/><path d="M332.7188,71.1406 Q332.1406,71.4375 331.5,71.5781 Q330.8594,71.7344 330.1563,71.7344 Q327.6563,71.7344 326.3281,70.0938 Q325.0156,68.4375 325.0156,65.3125 Q325.0156,62.1875 326.3281,60.5313 Q327.6563,58.875 330.1563,58.875 Q330.8594,58.875 331.5,59.0313 Q332.1563,59.1875 332.7188,59.4844 L332.7188,62.2031 Q332.0938,61.625 331.5,61.3594 Q330.9063,61.0781 330.2813,61.0781 Q328.9375,61.0781 328.25,62.1563 Q327.5625,63.2188 327.5625,65.3125 Q327.5625,67.4063 328.25,68.4844 Q328.9375,69.5469 330.2813,69.5469 Q330.9063,69.5469 331.5,69.2813 Q332.0938,69 332.7188,68.4219 L332.7188,71.1406 Z " fill="#000000"/><text fill="#000000" font-family="sans-serif" font-size="14" lengthAdjust="spacing" textLength="32" x="350.25" y="70.3467">User</text><line style="stroke:#181818;stroke-width:0.5;" x1="262" x2="438" y1="81.5" y2="81.5"/><ellipse cx="272" cy="95.1484" fill="none" rx="3" ry="3" style="stroke:#038048;stroke-width:1.0;"/><text fill="#000000" font-family="sans-serif" font-size="14" lengthAdjust="spacing" textLength="96" x="281" y="98.4951">id: UUID &#171;PK&#187;</text><ellipse cx="272" cy="111.4453" fill="none" rx="3" ry="3" style="stroke:#038048;stroke-width:1.0;"/><text fill="#000000" font-family="sans-serif" font-size="14" lengthAdjust="spacing" textLength="120" x="281" y="114.792">email: VARCHAR</text><ellipse cx="272" cy="127.7422" fill="none" rx="3" ry="3" style="stroke:#038048;stroke-width:1.0;"/><text fill="#000000" font-family="sans-serif" font-size="14" lengthAdjust="spacing" textLength="147" x="281" y="131.0889">password: VARCHAR</text><ellipse cx="272" cy="144.0391" fill="none" rx="3" ry="3" style="stroke:#038048;stroke-width:1.0;"/><text fill="#000000" font-family="sans-serif" font-size="14" lengthAdjust="spacing" textLength="152" x="281" y="147.3857">username: VARCHAR</text><line style="stroke:#181818;stroke-width:0.5;" x1="262" x2="438" y1="154.6875" y2="154.6875"/></g><!--class ParticipantRole--><g id="elem_ParticipantRole"><rect codeLine="10" fill="#F1F1F1" height="80.5938" id="ParticipantRole" rx="2.5" ry="2.5" style="stroke:#181818;stroke-width:0.5;" width="140" x="137" y="570"/><ellipse cx="152" cy="586" fill="#EB937F" rx="11" ry="11" style="stroke:#181818;stroke-width:1.0;"/><path d="M156.1094,592 L148.3906,592 L148.3906,579.6094 L156.1094,579.6094 L156.1094,581.7656 L150.8438,581.7656 L150.8438,584.4375 L155.6094,584.4375 L155.6094,586.5938 L150.8438,586.5938 L150.8438,589.8438 L156.1094,589.8438 L156.1094,592 Z " fill="#000000"/><text fill="#000000" font-family="sans-serif" font-size="14" lengthAdjust="spacing" textLength="108" x="166" y="590.8467">ParticipantRole</text><line style="stroke:#181818;stroke-width:0.5;" x1="138" x2="276" y1="602" y2="602"/><text fill="#000000" font-family="sans-serif" font-size="14" lengthAdjust="spacing" textLength="47" x="143" y="618.9951">ADMIN</text><text fill="#000000" font-family="sans-serif" font-size="14" lengthAdjust="spacing" textLength="92" x="143" y="635.292">PARTICIPANT</text><line style="stroke:#181818;stroke-width:0.5;" x1="138" x2="276" y1="642.5938" y2="642.5938"/></g><!--class Activity--><g id="elem_Activity"><rect codeLine="15" fill="#F1F1F1" height="145.7813" id="Activity" rx="2.5" ry="2.5" style="stroke:#181818;stroke-width:0.5;" width="211" x="14.5" y="33"/><ellipse cx="89.75" cy="49" fill="#ADD1B2" rx="11" ry="11" style="stroke:#181818;stroke-width:1.0;"/><path d="M92.7188,54.6406 Q92.1406,54.9375 91.5,55.0781 Q90.8594,55.2344 90.1563,55.2344 Q87.6563,55.2344 86.3281,53.5938 Q85.0156,51.9375 85.0156,48.8125 Q85.0156,45.6875 86.3281,44.0313 Q87.6563,42.375 90.1563,42.375 Q90.8594,42.375 91.5,42.5313 Q92.1563,42.6875 92.7188,42.9844 L92.7188,45.7031 Q92.0938,45.125 91.5,44.8594 Q90.9063,44.5781 90.2813,44.5781 Q88.9375,44.5781 88.25,45.6563 Q87.5625,46.7188 87.5625,48.8125 Q87.5625,50.9063 88.25,51.9844 Q88.9375,53.0469 90.2813,53.0469 Q90.9063,53.0469 91.5,52.7813 Q92.0938,52.5 92.7188,51.9219 L92.7188,54.6406 Z " fill="#000000"/><text fill="#000000" font-family="sans-serif" font-size="14" lengthAdjust="spacing" textLength="52" x="110.25" y="53.8467">Activity</text><line style="stroke:#181818;stroke-width:0.5;" x1="15.5" x2="224.5" y1="65" y2="65"/><ellipse cx="25.5" cy="78.6484" fill="none" rx="3" ry="3" style="stroke:#038048;stroke-width:1.0;"/><text fill="#000000" font-family="sans-serif" font-size="14" lengthAdjust="spacing" textLength="96" x="34.5" y="81.9951">id: UUID &#171;PK&#187;</text><ellipse cx="25.5" cy="94.9453" fill="none" rx="3" ry="3" style="stroke:#038048;stroke-width:1.0;"/><text fill="#000000" font-family="sans-serif" font-size="14" lengthAdjust="spacing" textLength="121" x="34.5" y="98.292">name: VARCHAR</text><ellipse cx="25.5" cy="111.2422" fill="none" rx="3" ry="3" style="stroke:#038048;stroke-width:1.0;"/><text fill="#000000" font-family="sans-serif" font-size="14" lengthAdjust="spacing" textLength="125" x="34.5" y="114.5889">description: TEXT</text><ellipse cx="25.5" cy="127.5391" fill="none" rx="3" ry="3" style="stroke:#038048;stroke-width:1.0;"/><text fill="#000000" font-family="sans-serif" font-size="14" lengthAdjust="spacing" textLength="137" x="34.5" y="130.8857">location: VARCHAR</text><ellipse cx="25.5" cy="143.8359" fill="none" rx="3" ry="3" style="stroke:#038048;stroke-width:1.0;"/><text fill="#000000" font-family="sans-serif" font-size="14" lengthAdjust="spacing" textLength="185" x="34.5" y="147.1826">startTime: LocalDateTime</text><ellipse cx="25.5" cy="160.1328" fill="none" rx="3" ry="3" style="stroke:#038048;stroke-width:1.0;"/><text fill="#000000" font-family="sans-serif" font-size="14" lengthAdjust="spacing" textLength="180" x="34.5" y="163.4795">endTime: LocalDateTime</text><line style="stroke:#181818;stroke-width:0.5;" x1="15.5" x2="224.5" y1="170.7813" y2="170.7813"/></g><!--class UserActivity--><g id="elem_UserActivity"><rect codeLine="24" fill="#F1F1F1" height="113.1875" id="UserActivity" rx="2.5" ry="2.5" style="stroke:#181818;stroke-width:0.5;" width="193" x="110.5" y="318"/><ellipse cx="160.75" cy="334" fill="#ADD1B2" rx="11" ry="11" style="stroke:#181818;stroke-width:1.0;"/><path d="M163.7188,339.6406 Q163.1406,339.9375 162.5,340.0781 Q161.8594,340.2344 161.1563,340.2344 Q158.6563,340.2344 157.3281,338.5938 Q156.0156,336.9375 156.0156,333.8125 Q156.0156,330.6875 157.3281,329.0313 Q158.6563,327.375 161.1563,327.375 Q161.8594,327.375 162.5,327.5313 Q163.1563,327.6875 163.7188,327.9844 L163.7188,330.7031 Q163.0938,330.125 162.5,329.8594 Q161.9063,329.5781 161.2813,329.5781 Q159.9375,329.5781 159.25,330.6563 Q158.5625,331.7188 158.5625,333.8125 Q158.5625,335.9063 159.25,336.9844 Q159.9375,338.0469 161.2813,338.0469 Q161.9063,338.0469 162.5,337.7813 Q163.0938,337.5 163.7188,336.9219 L163.7188,339.6406 Z " fill="#000000"/><text fill="#000000" font-family="sans-serif" font-size="14" lengthAdjust="spacing" textLength="84" x="181.25" y="338.8467">UserActivity</text><line style="stroke:#181818;stroke-width:0.5;" x1="111.5" x2="302.5" y1="350" y2="350"/><ellipse cx="121.5" cy="363.6484" fill="none" rx="3" ry="3" style="stroke:#038048;stroke-width:1.0;"/><text fill="#000000" font-family="sans-serif" font-size="14" lengthAdjust="spacing" textLength="96" x="130.5" y="366.9951">id: UUID &#171;PK&#187;</text><ellipse cx="121.5" cy="379.9453" fill="none" rx="3" ry="3" style="stroke:#038048;stroke-width:1.0;"/><text fill="#000000" font-family="sans-serif" font-size="14" lengthAdjust="spacing" textLength="127" x="130.5" y="383.292">userId: UUID &#171;FK&#187;</text><ellipse cx="121.5" cy="396.2422" fill="none" rx="3" ry="3" style="stroke:#038048;stroke-width:1.0;"/><text fill="#000000" font-family="sans-serif" font-size="14" lengthAdjust="spacing" textLength="112" x="130.5" y="399.5889">activity: Activity</text><ellipse cx="121.5" cy="412.5391" fill="none" rx="3" ry="3" style="stroke:#038048;stroke-width:1.0;"/><text fill="#000000" font-family="sans-serif" font-size="14" lengthAdjust="spacing" textLength="167" x="130.5" y="415.8857">role: RoleType &#171;Enum&#187;</text><line style="stroke:#181818;stroke-width:0.5;" x1="111.5" x2="302.5" y1="423.1875" y2="423.1875"/></g><!--reverse link User to UserActivity--><g id="link_User_UserActivity"><path codeLine="33" d="M314.2072,173.2054 C289.8703,218.9009 261.4366,272.2887 237.1106,317.9636 " fill="none" id="User-backto-UserActivity" style="stroke:#181818;stroke-width:1.0;"/><polygon fill="none" points="319.8481,162.6139,313.4971,166.0293,314.2072,173.2054,320.5581,169.79,319.8481,162.6139" style="stroke:#181818;stroke-width:1.0;"/><text fill="#000000" font-family="sans-serif" font-size="13" lengthAdjust="spacing" textLength="93" x="279" y="253.0669">participates in</text><text fill="#000000" font-family="sans-serif" font-size="13" lengthAdjust="spacing" textLength="8" x="307.4724" y="182.8919">1</text><text fill="#000000" font-family="sans-serif" font-size="13" lengthAdjust="spacing" textLength="23" x="216.4951" y="306.8223">0..*</text></g><!--reverse link Activity to UserActivity--><g id="link_Activity_UserActivity"><path codeLine="34" d="M147.3571,190.4298 C161.4963,234.0662 175.4959,277.2718 188.588,317.6767 " fill="none" id="Activity-backto-UserActivity" style="stroke:#181818;stroke-width:1.0;"/><polygon fill="none" points="143.6582,179.0141,141.7024,185.9549,147.3571,190.4298,149.3129,183.489,143.6582,179.0141" style="stroke:#181818;stroke-width:1.0;"/><text fill="#000000" font-family="sans-serif" font-size="13" lengthAdjust="spacing" textLength="54" x="169" y="253.0669">includes</text><text fill="#000000" font-family="sans-serif" font-size="13" lengthAdjust="spacing" textLength="8" x="137.5319" y="198.7717">1</text><text fill="#000000" font-family="sans-serif" font-size="13" lengthAdjust="spacing" textLength="23" x="161.9425" y="306.9009">0..*</text></g><!--link UserActivity to ParticipantRole--><g id="link_UserActivity_ParticipantRole"><path codeLine="35" d="M207,431.0279 C207,473.8463 207,525.6472 207,563.949 " fill="none" id="UserActivity-to-ParticipantRole" style="stroke:#181818;stroke-width:1.0;"/><polygon fill="#181818" points="207,569.949,211,560.949,207,564.949,203,560.949,207,569.949" style="stroke:#181818;stroke-width:1.0;"/><text fill="#000000" font-family="sans-serif" font-size="13" lengthAdjust="spacing" textLength="114" x="208" y="505.0669">is assigned a role</text></g><!--SRC=[bL9DIyGm4BttLmozB2XTz5gMGjckMDIbb5QyXdHO1zCqDAcoIF-xwOVjhbNHtF9UtioyDr6Clx03GbaLAE3TSS0UBfZMa6kiBGBZkQJ2XpoF8zXiahiWc0ai6GaV7iDqUnkcCwvibRUgBhwX6bjRiXBFgNPeZx8f8M6r8KwAIPDM0ay62QE7U3_TaZ3DucsSXFlijCPW8UI6NiaS_sHZEKyF5wXvJSfG9Nt8Ta_PJ8cAim5VgBInysVKLRothqJ437RNazHayHFVVbt3ltnqsSOpUND6ih6IFsKpSxNDsOSkxUoeq4ftTX6Zk7N6eLOfYjwqVYQbLptM_nJtseNAyy2zMgyltFEnVL2VwpIeWMGlc-ZVfIIvQEmMfbOJvtd1uf_OznfiRdIGM023pfJZj1y0]--></g></svg>