<svg xmlns="http://www.w3.org/2000/svg" xmlns:xlink="http://www.w3.org/1999/xlink" contentStyleType="text/css" data-diagram-type="CLASS" height="557px" preserveAspectRatio="none" style="width:942px;height:557px;background:#FFFFFF;" version="1.1" viewBox="0 0 942 557" width="942px" zoomAndPan="magnify"><defs/><g><!--cluster model--><g class="cluster" data-entity="model" data-source-line="1" data-uid="ent0002" id="cluster_model"><path d="M8.5,6 L58.0215,6 A3.75,3.75 0 0 1 60.5215,8.5 L67.5215,28.2969 L932.5,28.2969 A2.5,2.5 0 0 1 935,30.7969 L935,548.06 A2.5,2.5 0 0 1 932.5,550.56 L8.5,550.56 A2.5,2.5 0 0 1 6,548.06 L6,8.5 A2.5,2.5 0 0 1 8.5,6" fill="none" style="stroke:#000000;stroke-width:1.5;"/><line style="stroke:#000000;stroke-width:1.5;" x1="6" x2="67.5215" y1="28.2969" y2="28.2969"/><text fill="#000000" font-family="sans-serif" font-size="14" font-weight="bold" lengthAdjust="spacing" textLength="48.5215" x="10" y="20.9951">model</text></g><!--class User--><g class="entity" data-entity="User" data-source-line="3" data-uid="ent0003" id="entity_User"><rect fill="#F1F1F1" height="113.1875" rx="2.5" ry="2.5" style="stroke:#181818;stroke-width:0.5;" width="173.8955" x="311.05" y="41"/><ellipse cx="377.7927" cy="57" fill="#ADD1B2" rx="11" ry="11" style="stroke:#181818;stroke-width:1;"/><path d="M380.7614,62.6406 Q380.1833,62.9375 379.5427,63.0781 Q378.9021,63.2344 378.1989,63.2344 Q375.6989,63.2344 374.3708,61.5938 Q373.0583,59.9375 373.0583,56.8125 Q373.0583,53.6875 374.3708,52.0313 Q375.6989,50.375 378.1989,50.375 Q378.9021,50.375 379.5427,50.5313 Q380.1989,50.6875 380.7614,50.9844 L380.7614,53.7031 Q380.1364,53.125 379.5427,52.8594 Q378.9489,52.5781 378.3239,52.5781 Q376.9802,52.5781 376.2927,53.6563 Q375.6052,54.7188 375.6052,56.8125 Q375.6052,58.9063 376.2927,59.9844 Q376.9802,61.0469 378.3239,61.0469 Q378.9489,61.0469 379.5427,60.7813 Q380.1364,60.5 380.7614,59.9219 L380.7614,62.6406 Z " fill="#000000"/><text fill="#000000" font-family="sans-serif" font-size="14" lengthAdjust="spacing" textLength="31.9102" x="398.2927" y="61.8467">User</text><line style="stroke:#181818;stroke-width:0.5;" x1="312.05" x2="483.9455" y1="73" y2="73"/><ellipse cx="322.05" cy="86.6484" fill="none" rx="3" ry="3" style="stroke:#038048;stroke-width:1;"/><text fill="#000000" font-family="sans-serif" font-size="14" lengthAdjust="spacing" textLength="96.5508" x="331.05" y="89.9951">id: UUID &#171;PK&#187;</text><ellipse cx="322.05" cy="102.9453" fill="none" rx="3" ry="3" style="stroke:#038048;stroke-width:1;"/><text fill="#000000" font-family="sans-serif" font-size="14" lengthAdjust="spacing" textLength="116.2656" x="331.05" y="106.292">email: VARCHAR</text><ellipse cx="322.05" cy="119.2422" fill="none" rx="3" ry="3" style="stroke:#038048;stroke-width:1;"/><text fill="#000000" font-family="sans-serif" font-size="14" lengthAdjust="spacing" textLength="144.3682" x="331.05" y="122.5889">password: VARCHAR</text><ellipse cx="322.05" cy="135.5391" fill="none" rx="3" ry="3" style="stroke:#038048;stroke-width:1;"/><text fill="#000000" font-family="sans-serif" font-size="14" lengthAdjust="spacing" textLength="147.8955" x="331.05" y="138.8857">username: VARCHAR</text><line style="stroke:#181818;stroke-width:0.5;" x1="312.05" x2="483.9455" y1="146.1875" y2="146.1875"/></g><!--class TokenRequestReason--><g class="entity" data-entity="TokenRequestReason" data-source-line="10" data-uid="ent0004" id="entity_TokenRequestReason"><rect fill="#F1F1F1" height="80.5938" rx="2.5" ry="2.5" style="stroke:#181818;stroke-width:0.5;" width="183.8604" x="22.07" y="453.97"/><ellipse cx="37.07" cy="469.97" fill="#EB937F" rx="11" ry="11" style="stroke:#181818;stroke-width:1;"/><path d="M41.1794,475.97 L33.4606,475.97 L33.4606,463.5794 L41.1794,463.5794 L41.1794,465.7356 L35.9138,465.7356 L35.9138,468.4075 L40.6794,468.4075 L40.6794,470.5637 L35.9138,470.5637 L35.9138,473.8137 L41.1794,473.8137 L41.1794,475.97 Z " fill="#000000"/><text fill="#000000" font-family="sans-serif" font-size="14" lengthAdjust="spacing" textLength="151.8604" x="51.07" y="474.8167">TokenRequestReason</text><line style="stroke:#181818;stroke-width:0.5;" x1="23.07" x2="204.9304" y1="485.97" y2="485.97"/><text fill="#000000" font-family="sans-serif" font-size="14" lengthAdjust="spacing" textLength="104.4668" x="28.07" y="502.9651">REGISTRATION</text><text fill="#000000" font-family="sans-serif" font-size="14" lengthAdjust="spacing" textLength="133.0205" x="28.07" y="519.262">PASSWORD_RESET</text><line style="stroke:#181818;stroke-width:0.5;" x1="23.07" x2="204.9304" y1="526.5637" y2="526.5637"/></g><!--class ParticipantRole--><g class="entity" data-entity="ParticipantRole" data-source-line="15" data-uid="ent0005" id="entity_ParticipantRole"><rect fill="#F1F1F1" height="80.5938" rx="2.5" ry="2.5" style="stroke:#181818;stroke-width:0.5;" width="138.3672" x="549.82" y="453.97"/><ellipse cx="564.82" cy="469.97" fill="#EB937F" rx="11" ry="11" style="stroke:#181818;stroke-width:1;"/><path d="M568.9294,475.97 L561.2106,475.97 L561.2106,463.5794 L568.9294,463.5794 L568.9294,465.7356 L563.6638,465.7356 L563.6638,468.4075 L568.4294,468.4075 L568.4294,470.5637 L563.6638,470.5637 L563.6638,473.8137 L568.9294,473.8137 L568.9294,475.97 Z " fill="#000000"/><text fill="#000000" font-family="sans-serif" font-size="14" lengthAdjust="spacing" textLength="106.3672" x="578.82" y="474.8167">ParticipantRole</text><line style="stroke:#181818;stroke-width:0.5;" x1="550.82" x2="687.1872" y1="485.97" y2="485.97"/><text fill="#000000" font-family="sans-serif" font-size="14" lengthAdjust="spacing" textLength="47.0381" x="555.82" y="502.9651">ADMIN</text><text fill="#000000" font-family="sans-serif" font-size="14" lengthAdjust="spacing" textLength="47.3799" x="555.82" y="519.262">GUEST</text><line style="stroke:#181818;stroke-width:0.5;" x1="550.82" x2="687.1872" y1="526.5637" y2="526.5637"/></g><!--class ParticipantId--><g class="entity" data-entity="ParticipantId" data-source-line="21" data-uid="ent0006" id="entity_ParticipantId"><rect fill="#F1F1F1" height="80.5938" rx="2.5" ry="2.5" style="stroke:#181818;stroke-width:0.5;" width="196.0781" x="722.96" y="453.97"/><ellipse cx="772.4556" cy="469.97" fill="#ADD1B2" rx="11" ry="11" style="stroke:#181818;stroke-width:1;"/><path d="M775.4244,475.6106 Q774.8462,475.9075 774.2056,476.0481 Q773.565,476.2044 772.8619,476.2044 Q770.3619,476.2044 769.0337,474.5637 Q767.7212,472.9075 767.7212,469.7825 Q767.7212,466.6575 769.0337,465.0012 Q770.3619,463.345 772.8619,463.345 Q773.565,463.345 774.2056,463.5012 Q774.8619,463.6575 775.4244,463.9544 L775.4244,466.6731 Q774.7994,466.095 774.2056,465.8294 Q773.6119,465.5481 772.9869,465.5481 Q771.6431,465.5481 770.9556,466.6262 Q770.2681,467.6887 770.2681,469.7825 Q770.2681,471.8762 770.9556,472.9544 Q771.6431,474.0169 772.9869,474.0169 Q773.6119,474.0169 774.2056,473.7512 Q774.7994,473.47 775.4244,472.8919 L775.4244,475.6106 Z " fill="#000000"/><text fill="#000000" font-family="sans-serif" font-size="14" lengthAdjust="spacing" textLength="88.5869" x="792.9556" y="474.8167">ParticipantId</text><line style="stroke:#181818;stroke-width:0.5;" x1="723.96" x2="918.0381" y1="485.97" y2="485.97"/><ellipse cx="733.96" cy="499.6184" fill="none" rx="3" ry="3" style="stroke:#038048;stroke-width:1;"/><text fill="#000000" font-family="sans-serif" font-size="14" lengthAdjust="spacing" textLength="149.0098" x="742.96" y="502.9651">userId: UUID &#171;PK,FK&#187;</text><ellipse cx="733.96" cy="515.9153" fill="none" rx="3" ry="3" style="stroke:#038048;stroke-width:1;"/><text fill="#000000" font-family="sans-serif" font-size="14" lengthAdjust="spacing" textLength="170.0781" x="742.96" y="519.262">activityId: UUID &#171;PK,FK&#187;</text><line style="stroke:#181818;stroke-width:0.5;" x1="723.96" x2="918.0381" y1="526.5637" y2="526.5637"/></g><!--class Participant--><g class="entity" data-entity="Participant" data-source-line="26" data-uid="ent0007" id="entity_Participant"><rect fill="#F1F1F1" height="96.8906" rx="2.5" ry="2.5" style="stroke:#181818;stroke-width:0.5;" width="174.0049" x="532" y="255.63"/><ellipse cx="576.9668" cy="271.63" fill="#ADD1B2" rx="11" ry="11" style="stroke:#181818;stroke-width:1;"/><path d="M579.9355,277.2706 Q579.3574,277.5675 578.7168,277.7081 Q578.0762,277.8644 577.373,277.8644 Q574.873,277.8644 573.5449,276.2237 Q572.2324,274.5675 572.2324,271.4425 Q572.2324,268.3175 573.5449,266.6612 Q574.873,265.005 577.373,265.005 Q578.0762,265.005 578.7168,265.1612 Q579.373,265.3175 579.9355,265.6144 L579.9355,268.3331 Q579.3105,267.755 578.7168,267.4894 Q578.123,267.2081 577.498,267.2081 Q576.1543,267.2081 575.4668,268.2862 Q574.7793,269.3487 574.7793,271.4425 Q574.7793,273.5362 575.4668,274.6144 Q576.1543,275.6769 577.498,275.6769 Q578.123,275.6769 578.7168,275.4112 Q579.3105,275.13 579.9355,274.5519 L579.9355,277.2706 Z " fill="#000000"/><text fill="#000000" font-family="sans-serif" font-size="14" lengthAdjust="spacing" textLength="75.5713" x="597.4668" y="276.4767">Participant</text><line style="stroke:#181818;stroke-width:0.5;" x1="533" x2="705.0049" y1="287.63" y2="287.63"/><ellipse cx="543" cy="301.2784" fill="none" rx="3" ry="3" style="stroke:#038048;stroke-width:1;"/><text fill="#000000" font-family="sans-serif" font-size="14" lengthAdjust="spacing" textLength="126.9365" x="552" y="304.6251">userId: UUID &#171;FK&#187;</text><ellipse cx="543" cy="317.5753" fill="none" rx="3" ry="3" style="stroke:#038048;stroke-width:1;"/><text fill="#000000" font-family="sans-serif" font-size="14" lengthAdjust="spacing" textLength="148.0049" x="552" y="320.922">activityId: UUID &#171;FK&#187;</text><ellipse cx="543" cy="333.8722" fill="none" rx="3" ry="3" style="stroke:#038048;stroke-width:1;"/><text fill="#000000" font-family="sans-serif" font-size="14" lengthAdjust="spacing" textLength="142.3584" x="552" y="337.2189">role: ParticipantRole</text><line style="stroke:#181818;stroke-width:0.5;" x1="533" x2="705.0049" y1="344.5206" y2="344.5206"/></g><!--class Activity--><g class="entity" data-entity="Activity" data-source-line="32" data-uid="ent0008" id="entity_Activity"><rect fill="#F1F1F1" height="113.1875" rx="2.5" ry="2.5" style="stroke:#181818;stroke-width:0.5;" width="159.2051" x="539.4" y="41"/><ellipse cx="588.4513" cy="57" fill="#ADD1B2" rx="11" ry="11" style="stroke:#181818;stroke-width:1;"/><path d="M591.42,62.6406 Q590.8419,62.9375 590.2013,63.0781 Q589.5606,63.2344 588.8575,63.2344 Q586.3575,63.2344 585.0294,61.5938 Q583.7169,59.9375 583.7169,56.8125 Q583.7169,53.6875 585.0294,52.0313 Q586.3575,50.375 588.8575,50.375 Q589.5606,50.375 590.2013,50.5313 Q590.8575,50.6875 591.42,50.9844 L591.42,53.7031 Q590.795,53.125 590.2013,52.8594 Q589.6075,52.5781 588.9825,52.5781 Q587.6388,52.5781 586.9513,53.6563 Q586.2638,54.7188 586.2638,56.8125 Q586.2638,58.9063 586.9513,59.9844 Q587.6388,61.0469 588.9825,61.0469 Q589.6075,61.0469 590.2013,60.7813 Q590.795,60.5 591.42,59.9219 L591.42,62.6406 Z " fill="#000000"/><text fill="#000000" font-family="sans-serif" font-size="14" lengthAdjust="spacing" textLength="52.6025" x="608.9513" y="61.8467">Activity</text><line style="stroke:#181818;stroke-width:0.5;" x1="540.4" x2="697.6051" y1="73" y2="73"/><ellipse cx="550.4" cy="86.6484" fill="none" rx="3" ry="3" style="stroke:#038048;stroke-width:1;"/><text fill="#000000" font-family="sans-serif" font-size="14" lengthAdjust="spacing" textLength="96.5508" x="559.4" y="89.9951">id: UUID &#171;PK&#187;</text><ellipse cx="550.4" cy="102.9453" fill="none" rx="3" ry="3" style="stroke:#038048;stroke-width:1;"/><text fill="#000000" font-family="sans-serif" font-size="14" lengthAdjust="spacing" textLength="117.3594" x="559.4" y="106.292">name: VARCHAR</text><ellipse cx="550.4" cy="119.2422" fill="none" rx="3" ry="3" style="stroke:#038048;stroke-width:1;"/><text fill="#000000" font-family="sans-serif" font-size="14" lengthAdjust="spacing" textLength="122.5479" x="559.4" y="122.5889">description: TEXT</text><ellipse cx="550.4" cy="135.5391" fill="none" rx="3" ry="3" style="stroke:#038048;stroke-width:1;"/><text fill="#000000" font-family="sans-serif" font-size="14" lengthAdjust="spacing" textLength="133.2051" x="559.4" y="138.8857">location: VARCHAR</text><line style="stroke:#181818;stroke-width:0.5;" x1="540.4" x2="697.6051" y1="146.1875" y2="146.1875"/></g><!--class TokenId--><g class="entity" data-entity="TokenId" data-source-line="40" data-uid="ent0009" id="entity_TokenId"><rect fill="#F1F1F1" height="80.5938" rx="2.5" ry="2.5" style="stroke:#181818;stroke-width:0.5;" width="273.9121" x="241.04" y="453.97"/><ellipse cx="345.8828" cy="469.97" fill="#ADD1B2" rx="11" ry="11" style="stroke:#181818;stroke-width:1;"/><path d="M348.8515,475.6106 Q348.2734,475.9075 347.6328,476.0481 Q346.9921,476.2044 346.289,476.2044 Q343.789,476.2044 342.4609,474.5637 Q341.1484,472.9075 341.1484,469.7825 Q341.1484,466.6575 342.4609,465.0012 Q343.789,463.345 346.289,463.345 Q346.9921,463.345 347.6328,463.5012 Q348.289,463.6575 348.8515,463.9544 L348.8515,466.6731 Q348.2265,466.095 347.6328,465.8294 Q347.039,465.5481 346.414,465.5481 Q345.0703,465.5481 344.3828,466.6262 Q343.6953,467.6887 343.6953,469.7825 Q343.6953,471.8762 344.3828,472.9544 Q345.0703,474.0169 346.414,474.0169 Q347.039,474.0169 347.6328,473.7512 Q348.2265,473.47 348.8515,472.8919 L348.8515,475.6106 Z " fill="#000000"/><text fill="#000000" font-family="sans-serif" font-size="14" lengthAdjust="spacing" textLength="55.7266" x="366.3828" y="474.8167">TokenId</text><line style="stroke:#181818;stroke-width:0.5;" x1="242.04" x2="513.9521" y1="485.97" y2="485.97"/><ellipse cx="252.04" cy="499.6184" fill="none" rx="3" ry="3" style="stroke:#038048;stroke-width:1;"/><text fill="#000000" font-family="sans-serif" font-size="14" lengthAdjust="spacing" textLength="149.0098" x="261.04" y="502.9651">userId: UUID &#171;PK,FK&#187;</text><ellipse cx="252.04" cy="515.9153" fill="none" rx="3" ry="3" style="stroke:#038048;stroke-width:1;"/><text fill="#000000" font-family="sans-serif" font-size="14" lengthAdjust="spacing" textLength="247.9121" x="261.04" y="519.262">reason: TokenRequestReason &#171;PK&#187;</text><line style="stroke:#181818;stroke-width:0.5;" x1="242.04" x2="513.9521" y1="526.5637" y2="526.5637"/></g><!--class Token--><g class="entity" data-entity="Token" data-source-line="45" data-uid="ent0010" id="entity_Token"><rect fill="#F1F1F1" height="145.7813" rx="2.5" ry="2.5" style="stroke:#181818;stroke-width:0.5;" width="234.708" x="260.65" y="231.18"/><ellipse cx="352.3985" cy="247.18" fill="#ADD1B2" rx="11" ry="11" style="stroke:#181818;stroke-width:1;"/><path d="M355.3673,252.8206 Q354.7892,253.1175 354.1485,253.2581 Q353.5079,253.4144 352.8048,253.4144 Q350.3048,253.4144 348.9767,251.7737 Q347.6642,250.1175 347.6642,246.9925 Q347.6642,243.8675 348.9767,242.2112 Q350.3048,240.555 352.8048,240.555 Q353.5079,240.555 354.1485,240.7112 Q354.8048,240.8675 355.3673,241.1644 L355.3673,243.8831 Q354.7423,243.305 354.1485,243.0394 Q353.5548,242.7581 352.9298,242.7581 Q351.586,242.7581 350.8985,243.8362 Q350.211,244.8987 350.211,246.9925 Q350.211,249.0862 350.8985,250.1644 Q351.586,251.2269 352.9298,251.2269 Q353.5548,251.2269 354.1485,250.9612 Q354.7423,250.68 355.3673,250.1019 L355.3673,252.8206 Z " fill="#000000"/><text fill="#000000" font-family="sans-serif" font-size="14" lengthAdjust="spacing" textLength="42.7109" x="372.8985" y="252.0267">Token</text><line style="stroke:#181818;stroke-width:0.5;" x1="261.65" x2="494.358" y1="263.18" y2="263.18"/><ellipse cx="271.65" cy="276.8284" fill="none" rx="3" ry="3" style="stroke:#038048;stroke-width:1;"/><text fill="#000000" font-family="sans-serif" font-size="14" lengthAdjust="spacing" textLength="126.9365" x="280.65" y="280.1751">userId: UUID &#171;FK&#187;</text><ellipse cx="271.65" cy="293.1253" fill="none" rx="3" ry="3" style="stroke:#038048;stroke-width:1;"/><text fill="#000000" font-family="sans-serif" font-size="14" lengthAdjust="spacing" textLength="208.708" x="280.65" y="296.472">reason: TokenRequestReason</text><ellipse cx="271.65" cy="309.4222" fill="none" rx="3" ry="3" style="stroke:#038048;stroke-width:1;"/><text fill="#000000" font-family="sans-serif" font-size="14" lengthAdjust="spacing" textLength="117.3047" x="280.65" y="312.7689">token: VARCHAR</text><ellipse cx="271.65" cy="325.7191" fill="none" rx="3" ry="3" style="stroke:#038048;stroke-width:1;"/><text fill="#000000" font-family="sans-serif" font-size="14" lengthAdjust="spacing" textLength="86.1875" x="280.65" y="329.0657">counter: INT</text><ellipse cx="271.65" cy="342.0159" fill="none" rx="3" ry="3" style="stroke:#038048;stroke-width:1;"/><text fill="#000000" font-family="sans-serif" font-size="14" lengthAdjust="spacing" textLength="143.999" x="280.65" y="345.3626">createdDate: BIGINT</text><ellipse cx="271.65" cy="358.3128" fill="none" rx="3" ry="3" style="stroke:#038048;stroke-width:1;"/><text fill="#000000" font-family="sans-serif" font-size="14" lengthAdjust="spacing" textLength="134.0801" x="280.65" y="361.6595">expiryDate: BIGINT</text><line style="stroke:#181818;stroke-width:0.5;" x1="261.65" x2="494.358" y1="368.9612" y2="368.9612"/></g><!--reverse link User to Participant--><g class="link" data-entity-1="User" data-entity-2="Participant" data-source-line="55" data-uid="lnk11" id="link_User_Participant"><path codeLine="55" d="M467.198,162.6198 C501.318,194.1898 534.72,225.1 567.31,255.25" fill="none" id="User-backto-Participant" style="stroke:#181818;stroke-width:1;"/><polygon fill="none" points="458.39,154.47,460.0774,161.4809,467.198,162.6198,465.5106,155.6089,458.39,154.47" style="stroke:#181818;stroke-width:1;"/><text fill="#000000" font-family="sans-serif" font-size="13" lengthAdjust="spacing" textLength="93.1011" x="509" y="197.2469">participates in</text><text fill="#000000" font-family="sans-serif" font-size="13" lengthAdjust="spacing" textLength="8.271" x="457.2793" y="174.3908">1</text><text fill="#000000" font-family="sans-serif" font-size="13" lengthAdjust="spacing" textLength="23.0356" x="535.4261" y="244.4055">0..*</text></g><!--reverse link Activity to Participant--><g class="link" data-entity-1="Activity" data-entity-2="Participant" data-source-line="56" data-uid="lnk12" id="link_Activity_Participant"><path codeLine="56" d="M619,166.47 C619,198.04 619,225.1 619,255.25" fill="none" id="Activity-backto-Participant" style="stroke:#181818;stroke-width:1;"/><polygon fill="none" points="619,154.47,615,160.47,619,166.47,623,160.47,619,154.47" style="stroke:#181818;stroke-width:1;"/><text fill="#000000" font-family="sans-serif" font-size="13" lengthAdjust="spacing" textLength="53.8726" x="620" y="197.2469">includes</text><text fill="#000000" font-family="sans-serif" font-size="13" lengthAdjust="spacing" textLength="8.271" x="610.5287" y="174.3908">1</text><text fill="#000000" font-family="sans-serif" font-size="13" lengthAdjust="spacing" textLength="23.0356" x="594.385" y="244.4055">0..*</text></g><!--reverse link Participant to ParticipantId--><g class="link" data-entity-1="Participant" data-entity-2="ParticipantId" data-source-line="57" data-uid="lnk13" id="link_Participant_ParticipantId"><path codeLine="57" d="M679.0107,360.9892 C712.4407,392.1292 746.79,424.13 778.35,453.53" fill="none" id="Participant-backto-ParticipantId" style="stroke:#181818;stroke-width:1;"/><polygon fill="#181818" points="670.23,352.81,671.8939,359.8265,679.0107,360.9892,677.3467,353.9727,670.23,352.81" style="stroke:#181818;stroke-width:1;"/><text fill="#000000" font-family="sans-serif" font-size="13" lengthAdjust="spacing" textLength="94.8022" x="745" y="420.0369">composite key</text></g><!--link Participant to ParticipantRole--><g class="link" data-entity-1="Participant" data-entity-2="ParticipantRole" data-source-line="58" data-uid="lnk14" id="link_Participant_ParticipantRole"><path codeLine="58" d="M619,352.56 C619,383.81 619,418.24 619,447.73" fill="none" id="Participant-to-ParticipantRole" style="stroke:#181818;stroke-width:1;"/><polygon fill="#181818" points="619,453.73,623,444.73,619,448.73,615,444.73,619,453.73" style="stroke:#181818;stroke-width:1;"/><text fill="#000000" font-family="sans-serif" font-size="13" lengthAdjust="spacing" textLength="52.019" x="620" y="420.0369">has role</text></g><!--reverse link User to Token--><g class="link" data-entity-1="User" data-entity-2="Token" data-source-line="60" data-uid="lnk15" id="link_User_Token"><path codeLine="60" d="M388.9375,166.1581 C387.6975,176.1181 387.99,174.5 387,184.18 C385.47,199.22 384.08,215.34 382.87,230.72" fill="none" id="User-backto-Token" style="stroke:#181818;stroke-width:1;"/><polygon fill="none" points="390.42,154.25,385.7094,159.7099,388.9375,166.1581,393.6481,160.6982,390.42,154.25" style="stroke:#181818;stroke-width:1;"/><text fill="#000000" font-family="sans-serif" font-size="13" lengthAdjust="spacing" textLength="40.168" x="388" y="197.2469">issues</text><text fill="#000000" font-family="sans-serif" font-size="13" lengthAdjust="spacing" textLength="8.271" x="381.0255" y="174.144">1</text><text fill="#000000" font-family="sans-serif" font-size="13" lengthAdjust="spacing" textLength="23.0356" x="359.2394" y="220.0871">0..*</text></g><!--reverse link Token to TokenId--><g class="link" data-entity-1="Token" data-entity-2="TokenId" data-source-line="61" data-uid="lnk16" id="link_Token_TokenId"><path codeLine="61" d="M378,389.3 C378,415.21 378,431.46 378,453.6" fill="none" id="Token-backto-TokenId" style="stroke:#181818;stroke-width:1;"/><polygon fill="#181818" points="378,377.3,374,383.3,378,389.3,382,383.3,378,377.3" style="stroke:#181818;stroke-width:1;"/><text fill="#000000" font-family="sans-serif" font-size="13" lengthAdjust="spacing" textLength="94.8022" x="379" y="420.0369">composite key</text></g><!--link Token to TokenRequestReason--><g class="link" data-entity-1="Token" data-entity-2="TokenRequestReason" data-source-line="62" data-uid="lnk17" id="link_Token_TokenRequestReason"><path codeLine="62" d="M276.69,377.3 C240.33,403.21 205.5753,427.9766 174.5253,450.1166" fill="none" id="Token-to-TokenRequestReason" style="stroke:#181818;stroke-width:1;"/><polygon fill="#181818" points="169.64,453.6,179.2902,451.6317,173.7111,450.6972,174.6456,445.118,169.64,453.6" style="stroke:#181818;stroke-width:1;"/><text fill="#000000" font-family="sans-serif" font-size="13" lengthAdjust="spacing" textLength="74.8198" x="231" y="420.0369">for purpose</text></g><!--SRC=[bLDTJzim57tlhxZg2nAZQ7krKAL0iowQ1fMJihqXoxaRLfFOivsD2lM_upXjuv2KCJz4olquv_hSOyNuXlr2A6ME1JnF9k0EBvWni3QeNGJsvuF82QpNoGAkhbPVv_CkWIKJ1O7xYDvyYMWNLmxbhzJvIAfss1KhiP_QjVHOrILaSeCLnTyr6akH6La5iz1ucQGPZRBaxlOON4Lf-lsEBXvedCRP0735j1LSA5PPAWiCqAB5jwI3MQxZjDTzTYDB9Osm21lSxiNvANM8U1Re5eIJF1ImkNGIYdZnkQSZurRy4NPxecOt6ITvW-AV-Fq2xNGXhuKQSaTxd7UPOxXb7yxHS2sK5R8YaCK_iYvLICxQ-8WtJYx3-oLSWm_ytmAqznaPyrvmhPuMllJT6pXDqDNO9ZUY69TrPL4JI6u3iRY3j9Wlt8V0TRBi9V592RqTv0vIKYoyqEPHADDAvz_yzDCKv6m6qu-Nb-VJdjK8gCEVHGEYdVjeY3SxHSMBsktTjuIfSzVHVpG4UBZcGSTiDX-yPmAFp41ZuSd9gxJRSgCOK-y7QKFD20V3Z96tLGtjY3U8Dw2gjMjovBiN]--></g></svg>