<svg xmlns="http://www.w3.org/2000/svg" xmlns:xlink="http://www.w3.org/1999/xlink" contentStyleType="text/css" data-diagram-type="FILES" height="612px" preserveAspectRatio="none" style="width:352px;height:612px;background:#FFFFFF;" version="1.1" viewBox="0 0 352 612" width="352px" zoomAndPan="magnify"><defs/><g><path d="M10,26.9167 C10,28.2053 11.0448,29.25 12.3333,29.25 L26.3333,29.25 C27.6219,29.25 28.6667,28.2053 28.6667,26.9167 L28.6667,17 C28.6667,15.7114 27.6219,14.6667 26.3333,14.6667 L21.0833,14.6667 C19.0055,14.6667 19.3333,11.75 16.1612,11.75 L12.3333,11.75 C11.0448,11.75 10,12.7948 10,14.0833 L10,26.9167" fill="#226699"/><path d="M28.8627,17 L25.0348,17 C21.8627,17 21.8948,19.9167 19.8169,19.9167 L14.5669,19.9167 C13.2783,19.9167 12.1274,20.9614 11.9968,22.25 L11.7092,24.5098 L11.4035,26.9167 L11.3918,26.9155 C11.3242,27.2696 10.9998,27.4983 10.6335,27.4983 C10.2584,27.4983 9.9883,27.2025 10.007,26.8309 C10.0058,26.8601 10,26.8875 10,26.9167 C10,28.0857 10.8622,29.0447 11.9833,29.2144 C12.0866,29.2366 12.1998,29.25 12.3333,29.25 L27.5,29.25 C28.7886,29.25 29.9395,28.2053 30.0702,26.9167 L30.9586,19.3333 C31.0898,18.0448 30.1513,17 28.8627,17" fill="#55ACEE"/><text fill="#000000" font-family="sans-serif" font-size="14" lengthAdjust="spacing" textLength="33.7627" x="31" y="29.4482">code</text><path d="M31,51.6667 C31,52.9553 32.0448,54 33.3333,54 L47.3333,54 C48.6219,54 49.6667,52.9553 49.6667,51.6667 L49.6667,41.75 C49.6667,40.4614 48.6219,39.4167 47.3333,39.4167 L42.0833,39.4167 C40.0055,39.4167 40.3333,36.5 37.1612,36.5 L33.3333,36.5 C32.0448,36.5 31,37.5448 31,38.8333 L31,51.6667" fill="#226699"/><path d="M49.8627,41.75 L46.0348,41.75 C42.8627,41.75 42.8948,44.6667 40.8169,44.6667 L35.5669,44.6667 C34.2783,44.6667 33.1274,45.7114 32.9968,47 L32.7092,49.2598 L32.4035,51.6667 L32.3918,51.6655 C32.3242,52.0196 31.9998,52.2483 31.6335,52.2483 C31.2584,52.2483 30.9883,51.9525 31.007,51.5809 C31.0058,51.6101 31,51.6375 31,51.6667 C31,52.8357 31.8622,53.7947 32.9833,53.9644 C33.0866,53.9866 33.1998,54 33.3333,54 L48.5,54 C49.7886,54 50.9395,52.9553 51.0702,51.6667 L51.9586,44.0833 C52.0898,42.7948 51.1513,41.75 49.8627,41.75" fill="#55ACEE"/><text fill="#000000" font-family="sans-serif" font-size="14" lengthAdjust="spacing" textLength="59.6436" x="52" y="54.1982">backend</text><path d="M52,76.4167 C52,77.7053 53.0448,78.75 54.3333,78.75 L68.3333,78.75 C69.6219,78.75 70.6667,77.7053 70.6667,76.4167 L70.6667,66.5 C70.6667,65.2114 69.6219,64.1667 68.3333,64.1667 L63.0833,64.1667 C61.0055,64.1667 61.3333,61.25 58.1612,61.25 L54.3333,61.25 C53.0448,61.25 52,62.2948 52,63.5833 L52,76.4167" fill="#226699"/><path d="M70.8627,66.5 L67.0348,66.5 C63.8627,66.5 63.8948,69.4167 61.8169,69.4167 L56.5669,69.4167 C55.2783,69.4167 54.1274,70.4614 53.9968,71.75 L53.7092,74.0098 L53.4035,76.4167 L53.3918,76.4155 C53.3242,76.7696 52.9998,76.9983 52.6335,76.9983 C52.2584,76.9983 51.9883,76.7025 52.007,76.3309 C52.0058,76.3601 52,76.3875 52,76.4167 C52,77.5857 52.8622,78.5447 53.9833,78.7144 C54.0866,78.7366 54.1998,78.75 54.3333,78.75 L69.5,78.75 C70.7886,78.75 71.9395,77.7053 72.0702,76.4167 L72.9586,68.8333 C73.0898,67.5448 72.1513,66.5 70.8627,66.5" fill="#55ACEE"/><text fill="#000000" font-family="sans-serif" font-size="14" lengthAdjust="spacing" textLength="96.1748" x="73" y="78.9482">getactivecore</text><path d="M73,101.1667 C73,102.4553 74.0448,103.5 75.3333,103.5 L89.3333,103.5 C90.6219,103.5 91.6667,102.4553 91.6667,101.1667 L91.6667,91.25 C91.6667,89.9614 90.6219,88.9167 89.3333,88.9167 L84.0833,88.9167 C82.0055,88.9167 82.3333,86 79.1612,86 L75.3333,86 C74.0448,86 73,87.0448 73,88.3333 L73,101.1667" fill="#226699"/><path d="M91.8627,91.25 L88.0348,91.25 C84.8627,91.25 84.8948,94.1667 82.8169,94.1667 L77.5669,94.1667 C76.2783,94.1667 75.1274,95.2114 74.9968,96.5 L74.7092,98.7598 L74.4035,101.1667 L74.3918,101.1655 C74.3242,101.5196 73.9998,101.7483 73.6335,101.7483 C73.2584,101.7483 72.9883,101.4525 73.007,101.0809 C73.0058,101.1101 73,101.1375 73,101.1667 C73,102.3357 73.8622,103.2947 74.9833,103.4644 C75.0866,103.4866 75.1998,103.5 75.3333,103.5 L90.5,103.5 C91.7886,103.5 92.9395,102.4553 93.0702,101.1667 L93.9586,93.5833 C94.0898,92.2948 93.1513,91.25 91.8627,91.25" fill="#55ACEE"/><text fill="#000000" font-family="sans-serif" font-size="14" lengthAdjust="spacing" textLength="20.7471" x="94" y="103.6982">src</text><path d="M94,125.9167 C94,127.2053 95.0448,128.25 96.3333,128.25 L110.3333,128.25 C111.6219,128.25 112.6667,127.2053 112.6667,125.9167 L112.6667,116 C112.6667,114.7114 111.6219,113.6667 110.3333,113.6667 L105.0833,113.6667 C103.0055,113.6667 103.3333,110.75 100.1612,110.75 L96.3333,110.75 C95.0448,110.75 94,111.7948 94,113.0833 L94,125.9167" fill="#226699"/><path d="M112.8627,116 L109.0348,116 C105.8627,116 105.8948,118.9167 103.8169,118.9167 L98.5669,118.9167 C97.2783,118.9167 96.1274,119.9614 95.9968,121.25 L95.7092,123.5098 L95.4035,125.9167 L95.3918,125.9155 C95.3242,126.2696 94.9998,126.4983 94.6335,126.4983 C94.2584,126.4983 93.9883,126.2025 94.007,125.8309 C94.0058,125.8601 94,125.8875 94,125.9167 C94,127.0857 94.8622,128.0447 95.9833,128.2144 C96.0866,128.2366 96.1998,128.25 96.3333,128.25 L111.5,128.25 C112.7886,128.25 113.9395,127.2053 114.0702,125.9167 L114.9586,118.3333 C115.0898,117.0448 114.1513,116 112.8627,116" fill="#55ACEE"/><text fill="#000000" font-family="sans-serif" font-size="14" lengthAdjust="spacing" textLength="225.9482" x="115" y="128.4482">main.java.com.bu.getactivecore</text><path d="M133.9088,139.3418 L128.6588,134.0918 C128.4482,133.8813 128.1559,133.75 127.8333,133.75 C127.1893,133.75 126.6673,134.2727 126.6667,134.9167 C126.6667,135.2387 126.7973,135.5309 127.0085,135.7421 L124.7574,137.9932 L130.0074,143.2432 L132.2585,140.9921 C132.4697,141.2027 132.7613,141.3333 133.0833,141.3333 C133.7273,141.3333 134.2506,140.8107 134.25,140.1667 C134.25,139.8447 134.1193,139.553 133.9088,139.3418" fill="#E1E8ED"/><path d="M127.8333,133.75 L119.0833,133.75 C117.7948,133.75 116.75,134.7948 116.75,136.0833 L116.75,152.4167 C116.75,153.7053 117.7948,154.75 119.0833,154.75 L131.9167,154.75 C133.2053,154.75 134.25,153.7053 134.25,152.4167 L134.25,140.1667 L129,140.1667 C128.4167,140.1667 127.8333,139.5833 127.8333,139 L127.8333,133.75" fill="#CCD6DD"/><path d="M127.8333,133.75 L126.6667,133.75 L126.6667,139 C126.6667,140.2886 127.7114,141.3333 129,141.3333 L134.25,141.3333 L134.25,140.1667 L129,140.1667 C128.4167,140.1667 127.8333,139.5833 127.8333,139 L127.8333,133.75 M124.9167,138.4167 C124.9167,138.7387 124.6553,139 124.3333,139 L119.6667,139 C119.3447,139 119.0833,138.7387 119.0833,138.4167 C119.0833,138.0947 119.3447,137.8333 119.6667,137.8333 L124.3333,137.8333 C124.6553,137.8333 124.9167,138.0947 124.9167,138.4167 M124.9167,140.75 C124.9167,141.072 124.6553,141.3333 124.3333,141.3333 L119.6667,141.3333 C119.3447,141.3333 119.0833,141.072 119.0833,140.75 C119.0833,140.428 119.3447,140.1667 119.6667,140.1667 L124.3333,140.1667 C124.6553,140.1667 124.9167,140.428 124.9167,140.75 M131.9167,143.0833 C131.9167,143.4053 131.6559,143.6667 131.3333,143.6667 L119.6667,143.6667 C119.3447,143.6667 119.0833,143.4053 119.0833,143.0833 C119.0833,142.7613 119.3447,142.5 119.6667,142.5 L131.3333,142.5 C131.6559,142.5 131.9167,142.7613 131.9167,143.0833 M131.9167,145.4167 C131.9167,145.7393 131.6559,146 131.3333,146 L119.6667,146 C119.3447,146 119.0833,145.7393 119.0833,145.4167 C119.0833,145.0941 119.3447,144.8333 119.6667,144.8333 L131.3333,144.8333 C131.6559,144.8333 131.9167,145.0941 131.9167,145.4167 M131.9167,147.75 C131.9167,148.0726 131.6559,148.3333 131.3333,148.3333 L119.6667,148.3333 C119.3447,148.3333 119.0833,148.0726 119.0833,147.75 C119.0833,147.4274 119.3447,147.1667 119.6667,147.1667 L131.3333,147.1667 C131.6559,147.1667 131.9167,147.4274 131.9167,147.75 M131.9167,150.0833 C131.9167,150.4059 131.6559,150.6667 131.3333,150.6667 L119.6667,150.6667 C119.3447,150.6667 119.0833,150.4059 119.0833,150.0833 C119.0833,149.7608 119.3447,149.5 119.6667,149.5 L131.3333,149.5 C131.6559,149.5 131.9167,149.7608 131.9167,150.0833" fill="#99AAB5"/><text fill="#000000" font-family="sans-serif" font-size="14" lengthAdjust="spacing" textLength="180.5098" x="136" y="153.1982">GetActiveApplication.java</text><path d="M115,175.4167 C115,176.7053 116.0448,177.75 117.3333,177.75 L131.3333,177.75 C132.6219,177.75 133.6667,176.7053 133.6667,175.4167 L133.6667,165.5 C133.6667,164.2114 132.6219,163.1667 131.3333,163.1667 L126.0833,163.1667 C124.0055,163.1667 124.3333,160.25 121.1612,160.25 L117.3333,160.25 C116.0448,160.25 115,161.2948 115,162.5833 L115,175.4167" fill="#226699"/><path d="M133.8627,165.5 L130.0348,165.5 C126.8627,165.5 126.8948,168.4167 124.8169,168.4167 L119.5669,168.4167 C118.2783,168.4167 117.1274,169.4614 116.9968,170.75 L116.7092,173.0098 L116.4035,175.4167 L116.3918,175.4155 C116.3242,175.7696 115.9998,175.9983 115.6335,175.9983 C115.2584,175.9983 114.9883,175.7025 115.007,175.3309 C115.0058,175.3601 115,175.3875 115,175.4167 C115,176.5857 115.8622,177.5447 116.9833,177.7144 C117.0866,177.7366 117.1998,177.75 117.3333,177.75 L132.5,177.75 C133.7886,177.75 134.9395,176.7053 135.0702,175.4167 L135.9586,167.8333 C136.0898,166.5448 135.1513,165.5 133.8627,165.5" fill="#55ACEE"/><text fill="#000000" font-family="sans-serif" font-size="14" lengthAdjust="spacing" textLength="42.8408" x="136" y="177.9482">config</text><path d="M115,200.1667 C115,201.4553 116.0448,202.5 117.3333,202.5 L131.3333,202.5 C132.6219,202.5 133.6667,201.4553 133.6667,200.1667 L133.6667,190.25 C133.6667,188.9614 132.6219,187.9167 131.3333,187.9167 L126.0833,187.9167 C124.0055,187.9167 124.3333,185 121.1612,185 L117.3333,185 C116.0448,185 115,186.0448 115,187.3333 L115,200.1667" fill="#226699"/><path d="M133.8627,190.25 L130.0348,190.25 C126.8627,190.25 126.8948,193.1667 124.8169,193.1667 L119.5669,193.1667 C118.2783,193.1667 117.1274,194.2114 116.9968,195.5 L116.7092,197.7598 L116.4035,200.1667 L116.3918,200.1655 C116.3242,200.5196 115.9998,200.7483 115.6335,200.7483 C115.2584,200.7483 114.9883,200.4525 115.007,200.0809 C115.0058,200.1101 115,200.1375 115,200.1667 C115,201.3357 115.8622,202.2947 116.9833,202.4644 C117.0866,202.4866 117.1998,202.5 117.3333,202.5 L132.5,202.5 C133.7886,202.5 134.9395,201.4553 135.0702,200.1667 L135.9586,192.5833 C136.0898,191.2948 135.1513,190.25 133.8627,190.25" fill="#55ACEE"/><text fill="#000000" font-family="sans-serif" font-size="14" lengthAdjust="spacing" textLength="43.5928" x="136" y="202.6982">model</text><path d="M115,224.9167 C115,226.2053 116.0448,227.25 117.3333,227.25 L131.3333,227.25 C132.6219,227.25 133.6667,226.2053 133.6667,224.9167 L133.6667,215 C133.6667,213.7114 132.6219,212.6667 131.3333,212.6667 L126.0833,212.6667 C124.0055,212.6667 124.3333,209.75 121.1612,209.75 L117.3333,209.75 C116.0448,209.75 115,210.7948 115,212.0833 L115,224.9167" fill="#226699"/><path d="M133.8627,215 L130.0348,215 C126.8627,215 126.8948,217.9167 124.8169,217.9167 L119.5669,217.9167 C118.2783,217.9167 117.1274,218.9614 116.9968,220.25 L116.7092,222.5098 L116.4035,224.9167 L116.3918,224.9155 C116.3242,225.2696 115.9998,225.4983 115.6335,225.4983 C115.2584,225.4983 114.9883,225.2025 115.007,224.8309 C115.0058,224.8601 115,224.8875 115,224.9167 C115,226.0857 115.8622,227.0447 116.9833,227.2144 C117.0866,227.2366 117.1998,227.25 117.3333,227.25 L132.5,227.25 C133.7886,227.25 134.9395,226.2053 135.0702,224.9167 L135.9586,217.3333 C136.0898,216.0448 135.1513,215 133.8627,215" fill="#55ACEE"/><text fill="#000000" font-family="sans-serif" font-size="14" lengthAdjust="spacing" textLength="71.1006" x="136" y="227.4482">repository</text><path d="M115,249.6667 C115,250.9553 116.0448,252 117.3333,252 L131.3333,252 C132.6219,252 133.6667,250.9553 133.6667,249.6667 L133.6667,239.75 C133.6667,238.4614 132.6219,237.4167 131.3333,237.4167 L126.0833,237.4167 C124.0055,237.4167 124.3333,234.5 121.1612,234.5 L117.3333,234.5 C116.0448,234.5 115,235.5448 115,236.8333 L115,249.6667" fill="#226699"/><path d="M133.8627,239.75 L130.0348,239.75 C126.8627,239.75 126.8948,242.6667 124.8169,242.6667 L119.5669,242.6667 C118.2783,242.6667 117.1274,243.7114 116.9968,245 L116.7092,247.2598 L116.4035,249.6667 L116.3918,249.6655 C116.3242,250.0196 115.9998,250.2483 115.6335,250.2483 C115.2584,250.2483 114.9883,249.9525 115.007,249.5809 C115.0058,249.6101 115,249.6375 115,249.6667 C115,250.8357 115.8622,251.7947 116.9833,251.9644 C117.0866,251.9866 117.1998,252 117.3333,252 L132.5,252 C133.7886,252 134.9395,250.9553 135.0702,249.6667 L135.9586,242.0833 C136.0898,240.7948 135.1513,239.75 133.8627,239.75" fill="#55ACEE"/><text fill="#000000" font-family="sans-serif" font-size="14" lengthAdjust="spacing" textLength="50.1484" x="136" y="252.1982">service</text><path d="M94,274.4167 C94,275.7053 95.0448,276.75 96.3333,276.75 L110.3333,276.75 C111.6219,276.75 112.6667,275.7053 112.6667,274.4167 L112.6667,264.5 C112.6667,263.2114 111.6219,262.1667 110.3333,262.1667 L105.0833,262.1667 C103.0055,262.1667 103.3333,259.25 100.1612,259.25 L96.3333,259.25 C95.0448,259.25 94,260.2948 94,261.5833 L94,274.4167" fill="#226699"/><path d="M112.8627,264.5 L109.0348,264.5 C105.8627,264.5 105.8948,267.4167 103.8169,267.4167 L98.5669,267.4167 C97.2783,267.4167 96.1274,268.4614 95.9968,269.75 L95.7092,272.0098 L95.4035,274.4167 L95.3918,274.4155 C95.3242,274.7696 94.9998,274.9983 94.6335,274.9983 C94.2584,274.9983 93.9883,274.7025 94.007,274.3309 C94.0058,274.3601 94,274.3875 94,274.4167 C94,275.5857 94.8622,276.5447 95.9833,276.7144 C96.0866,276.7366 96.1998,276.75 96.3333,276.75 L111.5,276.75 C112.7886,276.75 113.9395,275.7053 114.0702,274.4167 L114.9586,266.8333 C115.0898,265.5448 114.1513,264.5 112.8627,264.5" fill="#55ACEE"/><text fill="#000000" font-family="sans-serif" font-size="14" lengthAdjust="spacing" textLength="26.8857" x="115" y="276.9482">test</text><path d="M31,299.1667 C31,300.4553 32.0448,301.5 33.3333,301.5 L47.3333,301.5 C48.6219,301.5 49.6667,300.4553 49.6667,299.1667 L49.6667,289.25 C49.6667,287.9614 48.6219,286.9167 47.3333,286.9167 L42.0833,286.9167 C40.0055,286.9167 40.3333,284 37.1612,284 L33.3333,284 C32.0448,284 31,285.0448 31,286.3333 L31,299.1667" fill="#226699"/><path d="M49.8627,289.25 L46.0348,289.25 C42.8627,289.25 42.8948,292.1667 40.8169,292.1667 L35.5669,292.1667 C34.2783,292.1667 33.1274,293.2114 32.9968,294.5 L32.7092,296.7598 L32.4035,299.1667 L32.3918,299.1655 C32.3242,299.5196 31.9998,299.7483 31.6335,299.7483 C31.2584,299.7483 30.9883,299.4525 31.007,299.0809 C31.0058,299.1101 31,299.1375 31,299.1667 C31,300.3357 31.8622,301.2947 32.9833,301.4644 C33.0866,301.4866 33.1998,301.5 33.3333,301.5 L48.5,301.5 C49.7886,301.5 50.9395,300.4553 51.0702,299.1667 L51.9586,291.5833 C52.0898,290.2948 51.1513,289.25 49.8627,289.25" fill="#55ACEE"/><text fill="#000000" font-family="sans-serif" font-size="14" lengthAdjust="spacing" textLength="64.9072" x="52" y="301.6982">database</text><path d="M70.9088,312.5918 L65.6588,307.3418 C65.4482,307.1313 65.1559,307 64.8333,307 C64.1893,307 63.6673,307.5227 63.6667,308.1667 C63.6667,308.4887 63.7973,308.7809 64.0085,308.9921 L61.7574,311.2432 L67.0074,316.4932 L69.2585,314.2421 C69.4697,314.4527 69.7613,314.5833 70.0833,314.5833 C70.7273,314.5833 71.2506,314.0607 71.25,313.4167 C71.25,313.0947 71.1193,312.803 70.9088,312.5918" fill="#E1E8ED"/><path d="M64.8333,307 L56.0833,307 C54.7948,307 53.75,308.0448 53.75,309.3333 L53.75,325.6667 C53.75,326.9553 54.7948,328 56.0833,328 L68.9167,328 C70.2053,328 71.25,326.9553 71.25,325.6667 L71.25,313.4167 L66,313.4167 C65.4167,313.4167 64.8333,312.8333 64.8333,312.25 L64.8333,307" fill="#CCD6DD"/><path d="M64.8333,307 L63.6667,307 L63.6667,312.25 C63.6667,313.5386 64.7114,314.5833 66,314.5833 L71.25,314.5833 L71.25,313.4167 L66,313.4167 C65.4167,313.4167 64.8333,312.8333 64.8333,312.25 L64.8333,307 M61.9167,311.6667 C61.9167,311.9887 61.6553,312.25 61.3333,312.25 L56.6667,312.25 C56.3447,312.25 56.0833,311.9887 56.0833,311.6667 C56.0833,311.3447 56.3447,311.0833 56.6667,311.0833 L61.3333,311.0833 C61.6553,311.0833 61.9167,311.3447 61.9167,311.6667 M61.9167,314 C61.9167,314.322 61.6553,314.5833 61.3333,314.5833 L56.6667,314.5833 C56.3447,314.5833 56.0833,314.322 56.0833,314 C56.0833,313.678 56.3447,313.4167 56.6667,313.4167 L61.3333,313.4167 C61.6553,313.4167 61.9167,313.678 61.9167,314 M68.9167,316.3333 C68.9167,316.6553 68.6559,316.9167 68.3333,316.9167 L56.6667,316.9167 C56.3447,316.9167 56.0833,316.6553 56.0833,316.3333 C56.0833,316.0113 56.3447,315.75 56.6667,315.75 L68.3333,315.75 C68.6559,315.75 68.9167,316.0113 68.9167,316.3333 M68.9167,318.6667 C68.9167,318.9893 68.6559,319.25 68.3333,319.25 L56.6667,319.25 C56.3447,319.25 56.0833,318.9893 56.0833,318.6667 C56.0833,318.3441 56.3447,318.0833 56.6667,318.0833 L68.3333,318.0833 C68.6559,318.0833 68.9167,318.3441 68.9167,318.6667 M68.9167,321 C68.9167,321.3226 68.6559,321.5833 68.3333,321.5833 L56.6667,321.5833 C56.3447,321.5833 56.0833,321.3226 56.0833,321 C56.0833,320.6774 56.3447,320.4167 56.6667,320.4167 L68.3333,320.4167 C68.6559,320.4167 68.9167,320.6774 68.9167,321 M68.9167,323.3333 C68.9167,323.6559 68.6559,323.9167 68.3333,323.9167 L56.6667,323.9167 C56.3447,323.9167 56.0833,323.6559 56.0833,323.3333 C56.0833,323.0108 56.3447,322.75 56.6667,322.75 L68.3333,322.75 C68.6559,322.75 68.9167,323.0108 68.9167,323.3333" fill="#99AAB5"/><text fill="#000000" font-family="sans-serif" font-size="14" lengthAdjust="spacing" textLength="69.5283" x="73" y="326.4482">01-init.sql</text><path d="M31,348.6667 C31,349.9553 32.0448,351 33.3333,351 L47.3333,351 C48.6219,351 49.6667,349.9553 49.6667,348.6667 L49.6667,338.75 C49.6667,337.4614 48.6219,336.4167 47.3333,336.4167 L42.0833,336.4167 C40.0055,336.4167 40.3333,333.5 37.1612,333.5 L33.3333,333.5 C32.0448,333.5 31,334.5448 31,335.8333 L31,348.6667" fill="#226699"/><path d="M49.8627,338.75 L46.0348,338.75 C42.8627,338.75 42.8948,341.6667 40.8169,341.6667 L35.5669,341.6667 C34.2783,341.6667 33.1274,342.7114 32.9968,344 L32.7092,346.2598 L32.4035,348.6667 L32.3918,348.6655 C32.3242,349.0196 31.9998,349.2483 31.6335,349.2483 C31.2584,349.2483 30.9883,348.9525 31.007,348.5809 C31.0058,348.6101 31,348.6375 31,348.6667 C31,349.8357 31.8622,350.7947 32.9833,350.9644 C33.0866,350.9866 33.1998,351 33.3333,351 L48.5,351 C49.7886,351 50.9395,349.9553 51.0702,348.6667 L51.9586,341.0833 C52.0898,339.7948 51.1513,338.75 49.8627,338.75" fill="#55ACEE"/><text fill="#000000" font-family="sans-serif" font-size="14" lengthAdjust="spacing" textLength="59.9854" x="52" y="351.1982">frontend</text><path d="M70.9088,362.0918 L65.6588,356.8418 C65.4482,356.6313 65.1559,356.5 64.8333,356.5 C64.1893,356.5 63.6673,357.0227 63.6667,357.6667 C63.6667,357.9887 63.7973,358.2809 64.0085,358.4921 L61.7574,360.7432 L67.0074,365.9932 L69.2585,363.7421 C69.4697,363.9527 69.7613,364.0833 70.0833,364.0833 C70.7273,364.0833 71.2506,363.5607 71.25,362.9167 C71.25,362.5947 71.1193,362.303 70.9088,362.0918" fill="#E1E8ED"/><path d="M64.8333,356.5 L56.0833,356.5 C54.7948,356.5 53.75,357.5448 53.75,358.8333 L53.75,375.1667 C53.75,376.4553 54.7948,377.5 56.0833,377.5 L68.9167,377.5 C70.2053,377.5 71.25,376.4553 71.25,375.1667 L71.25,362.9167 L66,362.9167 C65.4167,362.9167 64.8333,362.3333 64.8333,361.75 L64.8333,356.5" fill="#CCD6DD"/><path d="M64.8333,356.5 L63.6667,356.5 L63.6667,361.75 C63.6667,363.0386 64.7114,364.0833 66,364.0833 L71.25,364.0833 L71.25,362.9167 L66,362.9167 C65.4167,362.9167 64.8333,362.3333 64.8333,361.75 L64.8333,356.5 M61.9167,361.1667 C61.9167,361.4887 61.6553,361.75 61.3333,361.75 L56.6667,361.75 C56.3447,361.75 56.0833,361.4887 56.0833,361.1667 C56.0833,360.8447 56.3447,360.5833 56.6667,360.5833 L61.3333,360.5833 C61.6553,360.5833 61.9167,360.8447 61.9167,361.1667 M61.9167,363.5 C61.9167,363.822 61.6553,364.0833 61.3333,364.0833 L56.6667,364.0833 C56.3447,364.0833 56.0833,363.822 56.0833,363.5 C56.0833,363.178 56.3447,362.9167 56.6667,362.9167 L61.3333,362.9167 C61.6553,362.9167 61.9167,363.178 61.9167,363.5 M68.9167,365.8333 C68.9167,366.1553 68.6559,366.4167 68.3333,366.4167 L56.6667,366.4167 C56.3447,366.4167 56.0833,366.1553 56.0833,365.8333 C56.0833,365.5113 56.3447,365.25 56.6667,365.25 L68.3333,365.25 C68.6559,365.25 68.9167,365.5113 68.9167,365.8333 M68.9167,368.1667 C68.9167,368.4893 68.6559,368.75 68.3333,368.75 L56.6667,368.75 C56.3447,368.75 56.0833,368.4893 56.0833,368.1667 C56.0833,367.8441 56.3447,367.5833 56.6667,367.5833 L68.3333,367.5833 C68.6559,367.5833 68.9167,367.8441 68.9167,368.1667 M68.9167,370.5 C68.9167,370.8226 68.6559,371.0833 68.3333,371.0833 L56.6667,371.0833 C56.3447,371.0833 56.0833,370.8226 56.0833,370.5 C56.0833,370.1774 56.3447,369.9167 56.6667,369.9167 L68.3333,369.9167 C68.6559,369.9167 68.9167,370.1774 68.9167,370.5 M68.9167,372.8333 C68.9167,373.1559 68.6559,373.4167 68.3333,373.4167 L56.6667,373.4167 C56.3447,373.4167 56.0833,373.1559 56.0833,372.8333 C56.0833,372.5108 56.3447,372.25 56.6667,372.25 L68.3333,372.25 C68.6559,372.25 68.9167,372.5108 68.9167,372.8333" fill="#99AAB5"/><text fill="#000000" font-family="sans-serif" font-size="14" lengthAdjust="spacing" textLength="51.2695" x="73" y="375.9482">App.jsx</text><path d="M52,398.1667 C52,399.4553 53.0448,400.5 54.3333,400.5 L68.3333,400.5 C69.6219,400.5 70.6667,399.4553 70.6667,398.1667 L70.6667,388.25 C70.6667,386.9614 69.6219,385.9167 68.3333,385.9167 L63.0833,385.9167 C61.0055,385.9167 61.3333,383 58.1612,383 L54.3333,383 C53.0448,383 52,384.0448 52,385.3333 L52,398.1667" fill="#226699"/><path d="M70.8627,388.25 L67.0348,388.25 C63.8627,388.25 63.8948,391.1667 61.8169,391.1667 L56.5669,391.1667 C55.2783,391.1667 54.1274,392.2114 53.9968,393.5 L53.7092,395.7598 L53.4035,398.1667 L53.3918,398.1655 C53.3242,398.5196 52.9998,398.7483 52.6335,398.7483 C52.2584,398.7483 51.9883,398.4525 52.007,398.0809 C52.0058,398.1101 52,398.1375 52,398.1667 C52,399.3357 52.8622,400.2947 53.9833,400.4644 C54.0866,400.4866 54.1998,400.5 54.3333,400.5 L69.5,400.5 C70.7886,400.5 71.9395,399.4553 72.0702,398.1667 L72.9586,390.5833 C73.0898,389.2948 72.1513,388.25 70.8627,388.25" fill="#55ACEE"/><text fill="#000000" font-family="sans-serif" font-size="14" lengthAdjust="spacing" textLength="86.4951" x="73" y="400.6982">components</text><path d="M52,422.9167 C52,424.2053 53.0448,425.25 54.3333,425.25 L68.3333,425.25 C69.6219,425.25 70.6667,424.2053 70.6667,422.9167 L70.6667,413 C70.6667,411.7114 69.6219,410.6667 68.3333,410.6667 L63.0833,410.6667 C61.0055,410.6667 61.3333,407.75 58.1612,407.75 L54.3333,407.75 C53.0448,407.75 52,408.7948 52,410.0833 L52,422.9167" fill="#226699"/><path d="M70.8627,413 L67.0348,413 C63.8627,413 63.8948,415.9167 61.8169,415.9167 L56.5669,415.9167 C55.2783,415.9167 54.1274,416.9614 53.9968,418.25 L53.7092,420.5098 L53.4035,422.9167 L53.3918,422.9155 C53.3242,423.2696 52.9998,423.4983 52.6335,423.4983 C52.2584,423.4983 51.9883,423.2025 52.007,422.8309 C52.0058,422.8601 52,422.8875 52,422.9167 C52,424.0857 52.8622,425.0447 53.9833,425.2144 C54.0866,425.2366 54.1998,425.25 54.3333,425.25 L69.5,425.25 C70.7886,425.25 71.9395,424.2053 72.0702,422.9167 L72.9586,415.3333 C73.0898,414.0448 72.1513,413 70.8627,413" fill="#55ACEE"/><text fill="#000000" font-family="sans-serif" font-size="14" lengthAdjust="spacing" textLength="42.2598" x="73" y="425.4482">pages</text><path d="M52,447.6667 C52,448.9553 53.0448,450 54.3333,450 L68.3333,450 C69.6219,450 70.6667,448.9553 70.6667,447.6667 L70.6667,437.75 C70.6667,436.4614 69.6219,435.4167 68.3333,435.4167 L63.0833,435.4167 C61.0055,435.4167 61.3333,432.5 58.1612,432.5 L54.3333,432.5 C53.0448,432.5 52,433.5448 52,434.8333 L52,447.6667" fill="#226699"/><path d="M70.8627,437.75 L67.0348,437.75 C63.8627,437.75 63.8948,440.6667 61.8169,440.6667 L56.5669,440.6667 C55.2783,440.6667 54.1274,441.7114 53.9968,443 L53.7092,445.2598 L53.4035,447.6667 L53.3918,447.6655 C53.3242,448.0196 52.9998,448.2483 52.6335,448.2483 C52.2584,448.2483 51.9883,447.9525 52.007,447.5809 C52.0058,447.6101 52,447.6375 52,447.6667 C52,448.8357 52.8622,449.7947 53.9833,449.9644 C54.0866,449.9866 54.1998,450 54.3333,450 L69.5,450 C70.7886,450 71.9395,448.9553 72.0702,447.6667 L72.9586,440.0833 C73.0898,438.7948 72.1513,437.75 70.8627,437.75" fill="#55ACEE"/><text fill="#000000" font-family="sans-serif" font-size="14" lengthAdjust="spacing" textLength="41.4053" x="73" y="450.1982">hooks</text><path d="M52,472.4167 C52,473.7053 53.0448,474.75 54.3333,474.75 L68.3333,474.75 C69.6219,474.75 70.6667,473.7053 70.6667,472.4167 L70.6667,462.5 C70.6667,461.2114 69.6219,460.1667 68.3333,460.1667 L63.0833,460.1667 C61.0055,460.1667 61.3333,457.25 58.1612,457.25 L54.3333,457.25 C53.0448,457.25 52,458.2948 52,459.5833 L52,472.4167" fill="#226699"/><path d="M70.8627,462.5 L67.0348,462.5 C63.8627,462.5 63.8948,465.4167 61.8169,465.4167 L56.5669,465.4167 C55.2783,465.4167 54.1274,466.4614 53.9968,467.75 L53.7092,470.0098 L53.4035,472.4167 L53.3918,472.4155 C53.3242,472.7696 52.9998,472.9983 52.6335,472.9983 C52.2584,472.9983 51.9883,472.7025 52.007,472.3309 C52.0058,472.3601 52,472.3875 52,472.4167 C52,473.5857 52.8622,474.5447 53.9833,474.7144 C54.0866,474.7366 54.1998,474.75 54.3333,474.75 L69.5,474.75 C70.7886,474.75 71.9395,473.7053 72.0702,472.4167 L72.9586,464.8333 C73.0898,463.5448 72.1513,462.5 70.8627,462.5" fill="#55ACEE"/><text fill="#000000" font-family="sans-serif" font-size="14" lengthAdjust="spacing" textLength="57.4424" x="73" y="474.9482">services</text><path d="M52,497.1667 C52,498.4553 53.0448,499.5 54.3333,499.5 L68.3333,499.5 C69.6219,499.5 70.6667,498.4553 70.6667,497.1667 L70.6667,487.25 C70.6667,485.9614 69.6219,484.9167 68.3333,484.9167 L63.0833,484.9167 C61.0055,484.9167 61.3333,482 58.1612,482 L54.3333,482 C53.0448,482 52,483.0448 52,484.3333 L52,497.1667" fill="#226699"/><path d="M70.8627,487.25 L67.0348,487.25 C63.8627,487.25 63.8948,490.1667 61.8169,490.1667 L56.5669,490.1667 C55.2783,490.1667 54.1274,491.2114 53.9968,492.5 L53.7092,494.7598 L53.4035,497.1667 L53.3918,497.1655 C53.3242,497.5196 52.9998,497.7483 52.6335,497.7483 C52.2584,497.7483 51.9883,497.4525 52.007,497.0809 C52.0058,497.1101 52,497.1375 52,497.1667 C52,498.3357 52.8622,499.2947 53.9833,499.4644 C54.0866,499.4866 54.1998,499.5 54.3333,499.5 L69.5,499.5 C70.7886,499.5 71.9395,498.4553 72.0702,497.1667 L72.9586,489.5833 C73.0898,488.2948 72.1513,487.25 70.8627,487.25" fill="#55ACEE"/><text fill="#000000" font-family="sans-serif" font-size="14" lengthAdjust="spacing" textLength="29.4355" x="73" y="499.6982">utils</text><path d="M52,521.9167 C52,523.2053 53.0448,524.25 54.3333,524.25 L68.3333,524.25 C69.6219,524.25 70.6667,523.2053 70.6667,521.9167 L70.6667,512 C70.6667,510.7114 69.6219,509.6667 68.3333,509.6667 L63.0833,509.6667 C61.0055,509.6667 61.3333,506.75 58.1612,506.75 L54.3333,506.75 C53.0448,506.75 52,507.7948 52,509.0833 L52,521.9167" fill="#226699"/><path d="M70.8627,512 L67.0348,512 C63.8627,512 63.8948,514.9167 61.8169,514.9167 L56.5669,514.9167 C55.2783,514.9167 54.1274,515.9614 53.9968,517.25 L53.7092,519.5098 L53.4035,521.9167 L53.3918,521.9155 C53.3242,522.2696 52.9998,522.4983 52.6335,522.4983 C52.2584,522.4983 51.9883,522.2025 52.007,521.8309 C52.0058,521.8601 52,521.8875 52,521.9167 C52,523.0857 52.8622,524.0447 53.9833,524.2144 C54.0866,524.2366 54.1998,524.25 54.3333,524.25 L69.5,524.25 C70.7886,524.25 71.9395,523.2053 72.0702,521.9167 L72.9586,514.3333 C73.0898,513.0448 72.1513,512 70.8627,512" fill="#55ACEE"/><text fill="#000000" font-family="sans-serif" font-size="14" lengthAdjust="spacing" textLength="34.1797" x="73" y="524.4482">tests</text><path d="M73,546.6667 C73,547.9553 74.0448,549 75.3333,549 L89.3333,549 C90.6219,549 91.6667,547.9553 91.6667,546.6667 L91.6667,536.75 C91.6667,535.4614 90.6219,534.4167 89.3333,534.4167 L84.0833,534.4167 C82.0055,534.4167 82.3333,531.5 79.1612,531.5 L75.3333,531.5 C74.0448,531.5 73,532.5448 73,533.8333 L73,546.6667" fill="#226699"/><path d="M91.8627,536.75 L88.0348,536.75 C84.8627,536.75 84.8948,539.6667 82.8169,539.6667 L77.5669,539.6667 C76.2783,539.6667 75.1274,540.7114 74.9968,542 L74.7092,544.2598 L74.4035,546.6667 L74.3918,546.6655 C74.3242,547.0196 73.9998,547.2483 73.6335,547.2483 C73.2584,547.2483 72.9883,546.9525 73.007,546.5809 C73.0058,546.6101 73,546.6375 73,546.6667 C73,547.8357 73.8622,548.7947 74.9833,548.9644 C75.0866,548.9866 75.1998,549 75.3333,549 L90.5,549 C91.7886,549 92.9395,547.9553 93.0702,546.6667 L93.9586,539.0833 C94.0898,537.7948 93.1513,536.75 91.8627,536.75" fill="#55ACEE"/><text fill="#000000" font-family="sans-serif" font-size="14" lengthAdjust="spacing" textLength="86.4951" x="94" y="549.1982">components</text><path d="M73,571.4167 C73,572.7053 74.0448,573.75 75.3333,573.75 L89.3333,573.75 C90.6219,573.75 91.6667,572.7053 91.6667,571.4167 L91.6667,561.5 C91.6667,560.2114 90.6219,559.1667 89.3333,559.1667 L84.0833,559.1667 C82.0055,559.1667 82.3333,556.25 79.1612,556.25 L75.3333,556.25 C74.0448,556.25 73,557.2948 73,558.5833 L73,571.4167" fill="#226699"/><path d="M91.8627,561.5 L88.0348,561.5 C84.8627,561.5 84.8948,564.4167 82.8169,564.4167 L77.5669,564.4167 C76.2783,564.4167 75.1274,565.4614 74.9968,566.75 L74.7092,569.0098 L74.4035,571.4167 L74.3918,571.4155 C74.3242,571.7696 73.9998,571.9983 73.6335,571.9983 C73.2584,571.9983 72.9883,571.7025 73.007,571.3309 C73.0058,571.3601 73,571.3875 73,571.4167 C73,572.5857 73.8622,573.5447 74.9833,573.7144 C75.0866,573.7366 75.1998,573.75 75.3333,573.75 L90.5,573.75 C91.7886,573.75 92.9395,572.7053 93.0702,571.4167 L93.9586,563.8333 C94.0898,562.5448 93.1513,561.5 91.8627,561.5" fill="#55ACEE"/><text fill="#000000" font-family="sans-serif" font-size="14" lengthAdjust="spacing" textLength="42.2598" x="94" y="573.9482">pages</text><path d="M73,596.1667 C73,597.4553 74.0448,598.5 75.3333,598.5 L89.3333,598.5 C90.6219,598.5 91.6667,597.4553 91.6667,596.1667 L91.6667,586.25 C91.6667,584.9614 90.6219,583.9167 89.3333,583.9167 L84.0833,583.9167 C82.0055,583.9167 82.3333,581 79.1612,581 L75.3333,581 C74.0448,581 73,582.0448 73,583.3333 L73,596.1667" fill="#226699"/><path d="M91.8627,586.25 L88.0348,586.25 C84.8627,586.25 84.8948,589.1667 82.8169,589.1667 L77.5669,589.1667 C76.2783,589.1667 75.1274,590.2114 74.9968,591.5 L74.7092,593.7598 L74.4035,596.1667 L74.3918,596.1655 C74.3242,596.5196 73.9998,596.7483 73.6335,596.7483 C73.2584,596.7483 72.9883,596.4525 73.007,596.0809 C73.0058,596.1101 73,596.1375 73,596.1667 C73,597.3357 73.8622,598.2947 74.9833,598.4644 C75.0866,598.4866 75.1998,598.5 75.3333,598.5 L90.5,598.5 C91.7886,598.5 92.9395,597.4553 93.0702,596.1667 L93.9586,588.5833 C94.0898,587.2948 93.1513,586.25 91.8627,586.25" fill="#55ACEE"/><text fill="#000000" font-family="sans-serif" font-size="14" lengthAdjust="spacing" textLength="29.4355" x="94" y="598.6982">utils</text><!--SRC=[fL9DKy8m4BtdL-G81nh0Zr5Ee2Wp2ACZmZqDIrreDpNPLldtfXR64HmzSCnxRr_UVlGzQyShJC4BPUmILApD1cYf4c1j64imre7opgXC8qLhNUh8s2oAY-YdP0Gy-7eDyZn5enbjBJ_Ls5XQOQ9EjSb2TNgoYuFSUcJhjYTRUN0b6lZVXy6p4ZlPKhEEjGVLxhIGa2F_bkwvbRF4bKTOGRJs7uTmY95R0cAl3gbS9t2ClbgxEKPtmO-9WZ4zHglu_g-_Qy7l2MfkPopw0QgFLJobcdW-dSWId0-d9ZjHjzszYCxYCB_hnfmsPDz9Lj-60icOGLCqHayJwMtX3CWbUdOO5zMTDiKuh4a-5rJfUl8n1neF7_Q0lACIGw8in1VZnVHRS7dUka6Mip0HS78n5KDOwIBbK17wG4fwSlvotxeI4qr94JhiII1nQuElsmPkzWa0]--></g></svg>